<svg height="88" viewBox="0 0 143 88" width="143" xmlns="http://www.w3.org/2000/svg"><path d="m41.7027725 33.5128816c.1214314-3.2039949.2290406-6.5096872.2416362-8.6595483.0267162-2.16 1.1755121-4.08 3.1257936-4.9066666 1.3892415-.5866667 3.1792259-.6666667 5.4768177.5066666.587756.2666667 3.0189288 1.7066667 2.7517669 7.1733334 0 .1866666-.8549179 16.3733333-.6411884 19.4133333.0534324.32.2404457.96.5076075 1.1733333.0267162.0266667.1335809.1066667.4007428.08l.2137294-.0266666.0534324.0266666c.293878-.1066666 2.1372947-.88 4.7287645-7.2533333l.8014856-2.4266667c.6946207-2.4533333 1.015215-11.2 1.1220797-15.52.0534324-2.3466666 1.4961063-4.3466666 3.7135496-5.0133333 1.4961063-.4533333 3.3395229-.4 5.5035338.72.1068648.0533333 3.6601172 1.7866667 2.6983346 7.2533333l-.587756 6.7466667-.6411884 7.7333333c-.133581 2.9066667.1068647 6.0533334.9617826 6.1866667 1.4693901.0533333 1.0686473-.5333333 4.1944408-3.12l.2671619-2.2933333 1.0953635-7.6533334c.2938781-2.88.2404457-5.36.3740266-7.0666666.3205942-3.4133334.2137295-6.4533334 1.4159578-7.52 1.2022282-1.0933334 3.3929553-.8 5.9844251 1.36 1.3892416 1.1466666 2.4044566 2.6666666 3.045645 4.5333333 1.3892416-2.4 3.7135496-5.4933333 7.1065049-6.6666667 2.4311728-.8266666 5.0493588-.56 7.7209768.8533334.106865.0266666 1.870133 1.2 2.751767 2.5066666.641189.9333334 2.431173 3.8933334 1.656404 12.1866667-.160297 1.7066667-.587756 5.3333333-.961783 8.9333333.694621-.4533333 2.37774-3.04 4.675332-6.4 2.190727-11.2533333 11.407811-14.0266666 11.808554-14.1333333 6.385168-1.9733333 11.354378-1.6533333 14.774049.96 4.434887 3.3866667 4.408171 9.3066667 4.301306 9.7066667v.0533333c-.400743 5.4666667-4.141009 9.2266667-10.873487 10.88-3.606685.88-7.106505.9333333-8.789624.88-.187014 3.2 2.190727 5.4933333 2.297591 5.6 4.034144 3.52 10.499461-1.9466667 10.552893-2 1.68312-1.6 2.351024-1.9733333 2.511321-2.0533333l.080149-.0266667c1.015215-.4 1.709836.08 1.976997.2933333 1.175513.9866667.935067 3.28.694621 4.56-.748053 3.8933334-3.686833 6.5066667-8.46903 7.6266667-2.37774.56-4.648616.5866667-5.877561.56-.561039-.0266667-.881634-.0533333-.935066-.0533333-4.862345-.64-8.495746-2.7466667-11.0605-5.92-2.564754-3.2-2.644902-4.7733334-2.644902-4.7733334-2.992213 3.44-4.862346 4.6666667-8.949922 6.0533334-.026716.0266666-.026716.0266666-.053432.0266666-.053433.0266667-.133581.0533334-.187014.08-1.415957.5066667-3.2326578.48-5.4501011-.8266666-.5610399-.32-2.8853479-1.8933334-2.324308-7.3066667.0267162-.1866667 1.8434167-15.0933333 1.8167005-18.1333333 0-.32-.1602971-.96-.4274589-1.2-.0267162-.0266667-.133581-.1066667-.4007428-.1066667h-.2137295l-.0534323-.0266667c-.3205942.0533334-2.2174433.72-5.1829397 6.9066667l-.9617826 2.3733333c-.8282017 2.3733334-1.2556607 9.76-1.6296873 14.0533334-.1870132 2.32-1.7632681 4.2133333-4.0074275 4.7466666-1.5495387.3466667-3.3929554.2133334-5.5035339-1.04-.0534324-.0266666-1.015215-.56-1.736552-1.8133333-2.7517669 1.92-3.1257935 3.6-5.4501015 3.84 0 0-.0801486.0266667-.2404457.0266667-.881634.08-3.9005628.16-6.5988974-1.8666667-1.4426739-1.0666667-2.5380375-2.5333333-3.2860906-4.3733333-1.2022283 2.48-3.3662392 5.7333333-6.6523298 7.0933333-2.3777404.9866667-4.9692102.8533333-7.7209771-.4-.1068648-.0533333-1.9502815-1.0933333-2.8853479-2.3733333-.5481607-.722231-1.9601003-2.791615-2.3010632-8.1393216-1.4590136 1.3473771-3.4106143 2.5092546-5.7429318 3.643646-.1576878 7.9853183-.9089846 15.7335339-2.4287491 21.2956756-5.9309928 21.68-39.96741115 24.5333333-31.7388265-4.1333334 2.37774037-8.24 11.0605001-17.12 24.2850112-23.7066666.2404456-4.4533334.0534323-16.72-1.8968491-20.1866667-3.7402657-6.6666667 6.2248709-12.16 8.5491789-5.84 1.5966711 4.2907625 2.7416321 12.9211764 3.1233897 22.4193466 2.6766252-1.391437 4.9858822-3.252794 6.1459355-6.106465zm-21.0511623-32.65954827c1.9235652-1.09333333 5.5035339-1.28 8.1217199 1.84 2.0838623 2.50666667-2.4846051 5.49333334-2.5380375 5.52-1.0419312.56-3.4731039 2.07999997-4.8623455 2.02666667-1.5762548-.0533333-3.6868333-.45333333-4.4616027-2.88-.6679046-2.10666667 2.0571462-5.54666667 3.7402658-6.50666667zm109.6966508 32.42666667c.854918-1.4666667 1.12208-2.6666667.77477-3.4133333-.240446-.5333334-.801486-.72-.854918-.7466667-1.202229-.2933333-2.24416-.16-3.205942.4533333-2.297592 1.4666667-3.392956 5.1466667-3.820415 7.0933334 4.995927.2133333 7.079789-3.36 7.106505-3.3866667zm-107.5326399 38.3466667c2.1640109-4.2133334 3.3662391-11.04 3.6601172-17.7866667-7.5606801 3.7866667-15.6022514 10.6666667-15.9228457 18.4533333-.293878 6.48 8.3621656 6.88 12.2627285-.6666666zm106.2502629-3.0133334c5.316521 1.6266667 6.118007 3.8666667 5.316521 6.5866667-.881634 2.9866667-4.755481 4.1866667-7.694261 3.4666667-57.5199438-14.32-83.835385 1.3866666-85.4917884-4.4533334-.8014855-2.7733333.2671618-4.32 5.236372-5.4933333 50.0126963-11.9466667 80.3622814-.8 82.6331564-.1066667z" fill="#172328" fill-rule="evenodd"/></svg>