<!-- Generated by IcoMoon.io -->
<svg version="1.1" xmlns="http://www.w3.org/2000/svg" width="32" height="32" viewBox="0 0 32 32">
<title>app</title>
<path fill="#000" d="M23.194 0.106h-13.884c-1.917 0-3.471 1.541-3.471 3.442v24.968c0 1.901 1.554 3.442 3.471 3.442h13.884c1.917 0 3.471-1.541 3.471-3.442v-24.968c0-1.901-1.554-3.442-3.471-3.442v0zM9.31 2.161h13.884c0.777 0 1.399 0.616 1.399 1.387v0.719h-16.682v-0.719c0-0.771 0.622-1.387 1.399-1.387v0zM24.593 22.455h-16.682v-16.132h16.682v16.132zM23.194 29.955h-13.884c-0.777 0-1.399-0.616-1.399-1.387v-4.007h16.682v4.007c0 0.771-0.622 1.387-1.399 1.387v0z"></path>
<path fill="#000" d="M14.646 26.873c0 0.873 0.725 1.593 1.606 1.593s1.606-0.719 1.606-1.593c0-0.873-0.725-1.593-1.606-1.593s-1.606 0.719-1.606 1.593z"></path>
</svg>
