<!-- Generated by IcoMoon.io -->
<svg version="1.1" xmlns="http://www.w3.org/2000/svg" width="32" height="32" viewBox="0 0 32 32">
<title>arrow-left</title>
<path d="M10.56 9.273l-5.767 5.487 25.808 0.078c0.773 0 1.4 0.596 1.4 1.332s-0.627 1.332-1.4 1.332l-25.814-0.078 5.899 5.612c0.546 0.52 0.546 1.363 0 1.883s-1.433 0.52-1.98 0l-8.026-7.635c-0.041-0.039-0.079-0.081-0.114-0.124-0.343-0.242-0.566-0.63-0.566-1.068 0-0.424 0.209-0.801 0.534-1.045 0.007-0.007 8.046-7.657 8.046-7.657 0.546-0.52 1.433-0.52 1.979-0s0.546 1.363 0 1.883z"></path>
</svg>
