<!-- Generated by IcoMoon.io -->
<svg version="1.1" xmlns="http://www.w3.org/2000/svg" width="91" height="32" viewBox="0 0 91 32">
<title>bagaar</title>
<path fill="#000" d="M36.796 24.097h4.068c1.711 0 3.117-1.406 3.13-3.132v-5.472c0-0.179-0.076-0.345-0.203-0.486-0.127-0.128-0.291-0.205-0.482-0.205h-3.523c-0.367 0-0.672 0.307-0.672 0.678s0.304 0.678 0.672 0.678h2.864v4.756c0 0.997-0.798 1.803-1.787 1.803 0 0 0 0-0.013 0v0h-4.055c-0.988 0-1.787-0.805-1.787-1.803v-9.908c0-0.997 0.798-1.803 1.787-1.803h4.068c0.988 0 1.787 0.805 1.787 1.803 0 0.371 0.304 0.678 0.672 0.678s0.672-0.307 0.672-0.678c0-1.739-1.407-3.158-3.13-3.158h-4.068c-1.723 0-3.13 1.419-3.13 3.158v9.921c0 1.739 1.407 3.158 3.13 3.171v0zM22.198 24.097c0.367 0 0.672-0.307 0.672-0.678v-3.298h7.249v3.298c0 0.371 0.304 0.678 0.672 0.678s0.672-0.307 0.672-0.678l-0.013-7.683-0.038-0.205-2.927-7.261c-0.076-0.205-0.253-0.358-0.469-0.409l-0.038-0.013-0.127-0.013h-2.788l-0.051 0.013c-0.241 0.038-0.444 0.192-0.532 0.422l-2.927 7.261-0.038 0.205v7.683c0 0.371 0.304 0.678 0.684 0.678v0zM22.869 15.902l2.699-6.699h1.837l2.699 6.699v2.864h-7.249v-2.864h0.013zM46.858 24.097c0.367 0 0.672-0.307 0.672-0.678v-3.298h7.249v3.298c0 0.371 0.304 0.678 0.672 0.678s0.672-0.307 0.672-0.678l-0.013-7.683-0.038-0.205-2.94-7.261c-0.076-0.205-0.253-0.358-0.469-0.409l-0.038-0.013-0.127-0.013h-2.788l-0.051 0.013c-0.241 0.038-0.444 0.192-0.532 0.422l-2.927 7.261-0.038 0.205v7.683c0.025 0.371 0.329 0.678 0.697 0.678v0zM47.53 15.902l2.699-6.699h1.837l2.699 6.699v2.864h-7.249v-2.864h0.013zM58.999 24.097c0.367 0 0.672-0.307 0.672-0.678v-3.298h7.249v3.298c0 0.371 0.304 0.678 0.672 0.678s0.672-0.307 0.672-0.678l-0.013-7.683-0.038-0.205-2.94-7.261c-0.076-0.205-0.253-0.358-0.469-0.409l-0.038-0.013-0.127-0.013h-2.788l-0.051 0.013c-0.241 0.038-0.444 0.192-0.532 0.422l-2.927 7.261-0.038 0.205v7.683c0.025 0.371 0.329 0.678 0.697 0.678v0zM59.683 15.902l2.699-6.699h1.838l2.699 6.699v2.864h-7.236v-2.864zM71.139 24.084c0.368 0 0.672-0.307 0.672-0.678v-7.236h3.308l0.342 0.409 3.966 4.845v1.982c0 0.371 0.304 0.678 0.672 0.678s0.672-0.307 0.672-0.678v-2.224c0-0.153-0.051-0.307-0.152-0.435l-3.751-4.577h0.786c1.685 0 3.067-1.355 3.13-3.043v-2.122c0-1.751-1.407-3.158-3.13-3.158h-6.526c-0.368 0-0.672 0.307-0.672 0.678v14.881c0.013 0.371 0.317 0.678 0.684 0.678v0zM71.823 9.203h5.842c0.988 0 1.787 0.805 1.787 1.803v1.994c0 0.972-0.773 1.764-1.736 1.803h-5.893v-5.6zM9.665 24.097h6.526c1.723 0 3.13-1.419 3.13-3.158v-3.055c-0.025-0.972-0.494-1.828-1.191-2.391 0.697-0.563 1.166-1.419 1.191-2.378v-2.109c0-1.739-1.407-3.158-3.13-3.158h-6.526c-0.114 0-0.228 0.026-0.317 0.077-0.215 0.115-0.355 0.345-0.355 0.601v14.894c0 0.179 0.063 0.345 0.19 0.486 0.127 0.115 0.304 0.192 0.482 0.192v0zM10.336 9.203h5.842c0.988 0 1.787 0.805 1.787 1.803v2.033c-0.013 0.959-0.773 1.726-1.723 1.764h-5.905v-5.6zM10.336 16.158h5.918c0.95 0.038 1.711 0.831 1.711 1.803v2.966c0 0.997-0.798 1.803-1.787 1.803h-5.842v-6.571z"></path>
<path fill="#000" d="M88.454 1.355v29.174h-87.11v-29.174h87.11zM89.81 0h-89.81v31.884h89.81v-31.884z"></path>
</svg>
