<!-- Generated by IcoMoon.io -->
<svg version="1.1" xmlns="http://www.w3.org/2000/svg" width="32" height="32" viewBox="0 0 32 32">
<title>cheap</title>
<path d="M16.405 7.487c-3.636 0-6.486 1.53-6.486 3.479v10.879c0 1.955 2.85 3.479 6.486 3.479 3.636 0.005 6.486-1.525 6.486-3.474v-10.884c0-1.95-2.85-3.479-6.486-3.479v0zM16.405 8.358c3.362 0 5.621 1.349 5.621 2.614 0 1.259-2.259 2.614-5.621 2.614s-5.621-1.349-5.621-2.614c0-1.264 2.259-2.614 5.621-2.614v0zM16.405 24.458c-3.362 0-5.621-1.349-5.621-2.614v-0.42c1.108 1.041 3.188 1.726 5.621 1.726s4.513-0.685 5.621-1.726v0.42c0 1.264-2.259 2.614-5.621 2.614v0zM16.405 22.28c-3.362 0-5.621-1.349-5.621-2.614v-0.42c1.108 1.041 3.188 1.726 5.621 1.726s4.513-0.685 5.621-1.726v0.42c0 1.264-2.259 2.614-5.621 2.614v0zM16.405 20.108c-3.362 0-5.621-1.349-5.621-2.614v-0.42c1.108 1.041 3.188 1.726 5.621 1.726s4.513-0.685 5.621-1.726v0.42c0 1.264-2.259 2.614-5.621 2.614v0zM16.405 17.93c-3.362 0-5.621-1.349-5.621-2.614v-0.42c1.108 1.041 3.188 1.726 5.621 1.726s4.513-0.685 5.621-1.726v0.42c0 1.264-2.259 2.614-5.621 2.614v0zM16.405 15.752c-3.362 0-5.621-1.349-5.621-2.614v-0.42c1.108 1.041 3.188 1.726 5.621 1.726s4.513-0.685 5.621-1.726v0.42c0 1.264-2.259 2.614-5.621 2.614v0z"></path>
<path d="M31.4 16c0-8.505-6.895-15.4-15.4-15.4s-15.4 6.895-15.4 15.4c0 8.505 6.895 15.4 15.4 15.4s15.4-6.895 15.4-15.4zM1.4 16c0-8.063 6.537-14.6 14.6-14.6s14.6 6.537 14.6 14.6c0 8.063-6.537 14.6-14.6 14.6s-14.6-6.537-14.6-14.6z"></path>
</svg>
