<!-- Generated by IcoMoon.io -->
<svg version="1.1" xmlns="http://www.w3.org/2000/svg" width="32" height="32" viewBox="0 0 32 32">
<title>chill</title>
<path d="M31.4 16c0-8.505-6.895-15.4-15.4-15.4s-15.4 6.895-15.4 15.4c0 8.505 6.895 15.4 15.4 15.4s15.4-6.895 15.4-15.4zM1.4 16c0-8.063 6.537-14.6 14.6-14.6s14.6 6.537 14.6 14.6c0 8.063-6.537 14.6-14.6 14.6s-14.6-6.537-14.6-14.6z"></path>
<path d="M17.364 7.003c-0.090 0.013-0.173 0.056-0.236 0.122-0.209 0.202-0.44 0.41-0.626 0.685s-0.32 0.63-0.32 1.044c0 0.548 0.252 0.976 0.454 1.358s0.364 0.718 0.364 1.102c0 0.222-0.085 0.434-0.332 0.788-0.106 0.118-0.135 0.286-0.074 0.432s0.2 0.244 0.358 0.252c0.158 0.008 0.306-0.077 0.381-0.217 0.286-0.41 0.486-0.803 0.486-1.256 0-0.61-0.246-1.093-0.454-1.486s-0.364-0.698-0.364-0.974c0-0.253 0.062-0.417 0.179-0.589s0.297-0.343 0.511-0.551c0.133-0.12 0.172-0.313 0.098-0.476s-0.246-0.258-0.424-0.236v0zM15.134 7.823c-0.106 0.008-0.204 0.056-0.275 0.135-0.316 0.34-0.722 0.828-0.722 1.512 0 0.498 0.286 0.833 0.486 1.108s0.332 0.486 0.332 0.737c0-0.011-0.030 0.122-0.121 0.269s-0.225 0.316-0.371 0.461c-0.107 0.102-0.151 0.255-0.114 0.398s0.148 0.257 0.291 0.295c0.143 0.038 0.296-0.004 0.399-0.11 0.187-0.187 0.359-0.4 0.492-0.615s0.243-0.42 0.243-0.698c0-0.536-0.277-0.93-0.486-1.217s-0.332-0.473-0.332-0.628c0-0.354 0.218-0.645 0.505-0.955 0.117-0.123 0.146-0.305 0.074-0.458s-0.231-0.246-0.4-0.234v0zM9.393 13.57c-0.211 0.020-0.372 0.198-0.371 0.41v0.41c0 2.075 0.901 3.939 2.333 5.215-0.283 0.040-0.553 0.080-0.805 0.128-0.703 0.133-1.279 0.292-1.713 0.487-0.217 0.097-0.398 0.199-0.55 0.34s-0.288 0.35-0.288 0.596c0 0.245 0.136 0.449 0.288 0.589s0.333 0.242 0.55 0.34c0.434 0.194 1.010 0.354 1.713 0.487 1.407 0.267 3.316 0.429 5.427 0.429s4.020-0.162 5.427-0.429c0.703-0.133 1.279-0.292 1.713-0.487 0.217-0.097 0.398-0.199 0.55-0.34s0.288-0.344 0.288-0.589c0-0.245-0.136-0.455-0.288-0.596s-0.333-0.242-0.55-0.34c-0.434-0.194-1.010-0.354-1.713-0.487-0.251-0.048-0.523-0.089-0.805-0.128 0.171-0.152 0.337-0.312 0.492-0.48 1.358-0.251 2.544-0.739 3.42-1.416 0.906-0.7 1.489-1.63 1.489-2.665v-0.243c-0-0.226-0.183-0.41-0.409-0.41h-2.659v-0.41c-0-0.226-0.183-0.41-0.409-0.41h-13.091c-0.013-0.001-0.026-0.001-0.038 0v0zM9.841 14.39h12.273c0 3.414-2.73 6.15-6.136 6.15s-6.136-2.736-6.136-6.15v0zM22.881 15.21h2.276c-0.058 0.665-0.442 1.297-1.151 1.845-0.551 0.426-1.283 0.791-2.135 1.044 0.536-0.855 0.888-1.836 1.010-2.889v0zM12.308 20.316c1.064 0.662 2.322 1.044 3.669 1.044 1.344 0 2.6-0.378 3.663-1.038 0.59 0.061 1.141 0.129 1.611 0.218 0.666 0.126 1.202 0.28 1.534 0.429 0.157 0.071 0.253 0.139 0.307 0.186-0.054 0.047-0.151 0.109-0.307 0.179-0.332 0.149-0.868 0.303-1.534 0.429-1.332 0.253-3.204 0.416-5.273 0.416s-3.941-0.164-5.273-0.416c-0.666-0.126-1.202-0.28-1.534-0.429-0.156-0.070-0.253-0.133-0.307-0.179 0.054-0.047 0.149-0.115 0.307-0.186 0.332-0.149 0.868-0.303 1.534-0.429 0.47-0.089 1.015-0.164 1.604-0.224v0z"></path>
</svg>
