<!-- Generated by IcoMoon.io -->
<svg version="1.1" xmlns="http://www.w3.org/2000/svg" width="32" height="32" viewBox="0 0 32 32">
<title>close</title>
<path d="M31.213 31.213c-1.052 1.049-2.754 1.049-3.803 0l-11.411-11.411-11.411 11.411c-1.049 1.049-2.751 1.049-3.803 0-1.049-1.052-1.049-2.754 0-3.803l11.411-11.411-11.411-11.411c-1.049-1.049-1.049-2.751 0-3.803 1.052-1.049 2.754-1.049 3.803 0l11.411 11.411 11.411-11.411c1.049-1.049 2.751-1.049 3.803 0 1.049 1.052 1.049 2.754 0 3.803l-11.411 11.411 11.411 11.411c1.049 1.049 1.049 2.751 0 3.803v0z"></path>
</svg>
