<!-- Generated by IcoMoon.io -->
<svg version="1.1" xmlns="http://www.w3.org/2000/svg" width="32" height="32" viewBox="0 0 32 32">
<title>compare-vertical</title>
<path d="M13.472 23.965l-0.121 5.079c-0.010 0.435 0.329 0.798 0.763 0.818l5.075 0.233c0.441 0.020 0.816-0.321 0.836-0.762s-0.321-0.816-0.762-0.836l-5.075-0.233 0.763 0.818 0.121-5.079c0.011-0.442-0.339-0.808-0.781-0.819s-0.808 0.339-0.819 0.781v0z"></path>
<path d="M14.558 8.117l-0.475-5.058-0.704 0.87 5.046-0.587c0.439-0.051 0.753-0.448 0.702-0.887s-0.448-0.753-0.887-0.702l-5.046 0.587c-0.432 0.050-0.745 0.436-0.704 0.87l0.475 5.058c0.041 0.44 0.431 0.763 0.871 0.722s0.763-0.431 0.722-0.871v0z"></path>
<path d="M13.134 4.386c0.148 0.115 0.432 0.365 0.806 0.743 0.635 0.641 1.273 1.403 1.868 2.278 3.878 5.701 4.079 12.775-1.906 21.214l1.631 1.157c6.487-9.147 6.26-17.128 1.929-23.496-0.667-0.981-1.383-1.836-2.101-2.56-0.437-0.442-0.785-0.747-0.998-0.913l-1.23 1.577z"></path>
</svg>
