<!-- Generated by IcoMoon.io -->
<svg version="1.1" xmlns="http://www.w3.org/2000/svg" width="32" height="32" viewBox="0 0 32 32">
<title>device</title>
<path fill="#000" d="M15.268 26.403c5.775 0 10.473-4.515 10.473-10.106s-4.699-10.106-10.473-10.106c-5.775 0-10.473 4.515-10.473 10.106s4.699 10.106 10.473 10.106v0zM15.268 23.81c-4.352 0-7.863-3.373-7.863-7.513s3.511-7.513 7.863-7.513c4.352 0 7.863 3.373 7.863 7.513s-3.511 7.513-7.863 7.513v0z"></path>
<path fill="#000" d="M27.368 9.079l2.435 3.894c0 0 3.626-2.093 1.447-5.577s-5.805-1.391-5.805-1.391l1.922 3.074z"></path>
<path fill="#000" d="M30.52 16.298c0-8.119-6.836-14.687-15.252-14.687s-15.252 6.568-15.252 14.687c0 8.119 6.836 14.687 15.252 14.687s15.252-6.568 15.252-14.687zM15.268 28.99c-7.322 0-13.244-5.69-13.244-12.692s5.922-12.692 13.244-12.692c7.322 0 13.244 5.69 13.244 12.692s-5.922 12.692-13.244 12.692v0z"></path>
</svg>
