<!-- Generated by IcoMoon.io -->
<svg version="1.1" xmlns="http://www.w3.org/2000/svg" width="32" height="32" viewBox="0 0 32 32">
<title>export</title>
<path d="M1.203 28.846c0.018 0.91 0.751 1.643 1.661 1.661l26.181 0.513c0.935 0.018 1.709-0.725 1.727-1.661s-0.725-1.709-1.661-1.727l-26.181-0.513 1.661 1.661-0.513-26.181c-0.018-0.935-0.792-1.679-1.727-1.661s-1.679 0.792-1.661 1.727l0.513 26.181z"></path>
<path d="M11.838 17.039c-0.705 0.615-0.779 1.685-0.165 2.39s1.685 0.779 2.39 0.165l12.748-11.106c0.705-0.615 0.779-1.685 0.165-2.39s-1.685-0.779-2.39-0.165l-12.748 11.106z"></path>
<path d="M28.234 6.026c-0.018-0.91-0.751-1.643-1.661-1.661l-10.481-0.206c-0.935-0.018-1.709 0.725-1.727 1.661s0.725 1.709 1.661 1.727l10.481 0.206-1.661-1.661 0.206 10.481c0.018 0.935 0.792 1.679 1.727 1.661s1.679-0.792 1.661-1.727l-0.206-10.481z"></path>
</svg>
