<!-- Generated by IcoMoon.io -->
<svg version="1.1" xmlns="http://www.w3.org/2000/svg" width="32" height="32" viewBox="0 0 32 32">
<title>flag</title>
<path d="M31.4 16c0-8.505-6.895-15.4-15.4-15.4s-15.4 6.895-15.4 15.4c0 8.505 6.895 15.4 15.4 15.4s15.4-6.895 15.4-15.4zM1.4 16c0-8.063 6.537-14.6 14.6-14.6s14.6 6.537 14.6 14.6c0 8.063-6.537 14.6-14.6 14.6s-14.6-6.537-14.6-14.6z"></path>
<path d="M22 10.834h-10.019v-0.834h-0.981v13h0.981v-3.932h10.019l-2.114-4.117 2.114-4.117zM20.418 18.113h-8.437v-6.325h8.437l-1.624 3.162 0.218 0.425 1.406 2.737z"></path>
</svg>
