<!-- Generated by IcoMoon.io -->
<svg version="1.1" xmlns="http://www.w3.org/2000/svg" width="60" height="32" viewBox="0 0 60 32">
<title>graph</title>
<path d="M1.236 32h57.373c0.566 0 1.026-0.459 1.026-1.026s-0.459-1.026-1.026-1.026h-57.373c-0.566 0-1.026 0.459-1.026 1.026s0.459 1.026 1.026 1.026z"></path>
<path d="M2.198 30.499v-29.474c0-0.566-0.459-1.026-1.026-1.026s-1.026 0.459-1.026 1.026v29.474c0 0.566 0.459 1.026 1.026 1.026s1.026-0.459 1.026-1.026z"></path>
<path d="M17.144 30.499v-9.573c0-0.566-0.459-1.026-1.026-1.026s-1.026 0.459-1.026 1.026v9.573c0 0.566 0.459 1.026 1.026 1.026s1.026-0.459 1.026-1.026z"></path>
<path d="M9.671 30.499v-15.086c0-0.566-0.459-1.026-1.026-1.026s-1.026 0.459-1.026 1.026v15.086c0 0.566 0.459 1.026 1.026 1.026s1.026-0.459 1.026-1.026z"></path>
<path d="M24.617 30.499v-17.784c0-0.566-0.459-1.026-1.026-1.026s-1.026 0.459-1.026 1.026v17.784c0 0.566 0.459 1.026 1.026 1.026s1.026-0.459 1.026-1.026z"></path>
<path d="M32.090 30.499v-15.043c0-0.566-0.459-1.026-1.026-1.026s-1.026 0.459-1.026 1.026v15.043c0 0.566 0.459 1.026 1.026 1.026s1.026-0.459 1.026-1.026z"></path>
<path d="M39.563 30.499v-22.565c0-0.566-0.459-1.026-1.026-1.026s-1.026 0.459-1.026 1.026v22.565c0 0.566 0.459 1.026 1.026 1.026s1.026-0.459 1.026-1.026z"></path>
<path d="M47.035 30.499v-10.94c0-0.566-0.459-1.026-1.026-1.026s-1.026 0.459-1.026 1.026v10.94c0 0.566 0.459 1.026 1.026 1.026s1.026-0.459 1.026-1.026z"></path>
<path d="M54.508 30.499v-6.174c0-0.566-0.459-1.026-1.026-1.026s-1.026 0.459-1.026 1.026v6.174c0 0.566 0.459 1.026 1.026 1.026s1.026-0.459 1.026-1.026z"></path>
</svg>
