<!-- Generated by IcoMoon.io -->
<svg version="1.1" xmlns="http://www.w3.org/2000/svg" width="32" height="32" viewBox="0 0 32 32">
<title>invoice</title>
<path fill="#000" d="M17.86 5.415l-1.098 4.836-1.019-1.072-1.707 2.792 1.186-4.686 0.978 0.909z"></path>
<path fill="#000" d="M20.631 24.706c0 0.663 0.53 1.2 1.185 1.2s1.185-0.537 1.185-1.2c0-0.663-0.53-1.2-1.185-1.2s-1.185 0.537-1.185 1.2z"></path>
<path fill="#000" d="M18.621 24.068h-8.604c-0.392 0-0.709 0.317-0.709 0.709v0c0 0.392 0.317 0.709 0.709 0.709h8.604c0.392 0 0.709-0.317 0.709-0.709v0c0-0.392-0.317-0.709-0.709-0.709z"></path>
<path fill="#000" d="M20.631 20.343c0 0.663 0.53 1.2 1.185 1.2s1.185-0.537 1.185-1.2c0-0.663-0.53-1.2-1.185-1.2s-1.185 0.537-1.185 1.2z"></path>
<path fill="#000" d="M18.621 19.704h-8.604c-0.392 0-0.709 0.317-0.709 0.709v0c0 0.392 0.317 0.709 0.709 0.709h8.604c0.392 0 0.709-0.317 0.709-0.709v0c0-0.392-0.317-0.709-0.709-0.709z"></path>
<path fill="#000" d="M20.631 15.979c0 0.663 0.53 1.2 1.185 1.2s1.185-0.537 1.185-1.2c0-0.663-0.53-1.2-1.185-1.2s-1.185 0.537-1.185 1.2z"></path>
<path fill="#000" d="M18.621 15.34h-8.604c-0.392 0-0.709 0.317-0.709 0.709v0c0 0.392 0.317 0.709 0.709 0.709h8.604c0.392 0 0.709-0.317 0.709-0.709v0c0-0.392-0.317-0.709-0.709-0.709z"></path>
<path fill="#000" d="M5 2.002v0 27.997c0 0.006-0.004 0.002-0.003 0.002h22.006c-0.003 0-0.003-0-0.003-0.002v-27.997c0-0.006 0.004-0.002 0.003-0.002h-22.006c0.003 0 0.003 0 0.003 0.002v0zM3 2.002c0-1.106 0.895-2.002 1.997-2.002h22.006c1.103 0 1.997 0.889 1.997 2.002v27.997c0 1.106-0.895 2.002-1.997 2.002h-22.006c-1.103 0-1.997-0.889-1.997-2.002v-27.997z"></path>
</svg>
