<?xml version="1.0" encoding="UTF-8"?>
<svg width="369px" height="231px" viewBox="0 0 369 231" version="1.1" xmlns="http://www.w3.org/2000/svg" xmlns:xlink="http://www.w3.org/1999/xlink">
    <g id="Page-1" stroke="none" stroke-width="1" fill="none" fill-rule="evenodd">
        <path d="M107.963359,88.2314652 C108.277774,79.8201614 108.556183,71.1461325 108.588805,65.5026217 C108.658081,59.8257477 111.636937,54.7796375 116.694066,52.6070068 C120.296404,51.0651398 124.937878,50.8548852 130.895591,53.9386192 C132.419657,54.6394678 138.723749,58.4240504 138.030991,72.7914475 C138.030991,73.2820415 135.814168,115.823554 136.368374,123.813228 C136.506925,124.654247 136.991855,126.336283 137.684613,126.896962 C137.753888,126.967047 138.030991,127.177302 138.723749,127.107217 L139.277955,127.037132 L139.416506,127.107217 C140.178539,126.826877 144.958565,124.794416 151.678311,108.044134 L153.756583,101.666411 C155.557752,95.2186039 156.38906,72.2307686 156.666163,60.8770207 C156.804715,54.7095527 160.545604,49.4531879 166.29549,47.7010663 C170.174931,46.5096236 174.954957,46.6497933 180.566291,49.5933576 C180.843394,49.7335273 190.057066,54.2890435 187.56314,68.6564405 L186.039074,86.387911 L184.376456,106.712521 C184.030077,114.351772 184.653559,122.621786 186.870382,122.97221 C190.680548,123.11238 189.641412,121.570513 197.746672,114.772281 L198.43943,108.744983 L201.279735,88.6306267 C202.041768,81.0614614 201.903216,74.5435691 202.249595,70.0581378 C203.080904,61.0872753 202.803801,53.0976008 205.921209,50.2942063 C209.038617,47.4207268 214.719227,48.1916603 221.438973,53.8685343 C225.041311,56.8821834 227.673789,60.8770207 229.336406,65.7829611 C232.938744,59.4753234 238.965733,51.3454792 247.763751,48.2617452 C254.067843,46.0891144 260.856864,46.7899631 267.784437,50.5044608 C268.06154,50.5745457 272.633739,53.6582797 274.919838,57.092438 C276.582455,59.5454083 281.223929,67.3248281 279.214933,89.1212207 C278.799279,93.606652 277.690867,103.138193 276.721007,112.59965 C278.522176,111.408207 282.886547,104.609976 288.84426,95.7792828 C294.52487,66.2034703 318.424998,58.9146445 319.464134,58.634305 C336.021034,53.4480251 348.90632,54.2890435 357.773613,61.1573601 C369.273385,70.0581378 369.204109,85.6169775 368.927006,86.6682505 L368.927006,86.8084202 C367.88787,101.175817 358.189268,111.057783 340.731783,115.403045 C331.379559,117.715845 322.304439,117.856015 317.940067,117.715845 C317.455137,126.126029 323.620678,132.153327 323.89778,132.433666 C334.358416,141.684868 351.123143,127.317471 351.261695,127.177302 C355.626066,122.97221 357.357959,121.991022 357.773613,121.780767 L357.981441,121.710682 C360.613918,120.659409 362.415087,121.920937 363.107845,122.481616 C366.155977,125.074756 365.532495,131.102054 364.909014,134.466128 C362.969293,144.698518 355.348963,151.566834 342.948607,154.510399 C336.783067,155.982181 330.894629,156.052266 327.707946,155.982181 C326.253155,155.912096 325.421847,155.842011 325.283295,155.842011 C312.675112,154.159974 303.253612,148.62327 296.603142,140.283171 C289.952672,131.872988 289.744845,127.737981 289.744845,127.737981 C281.985963,136.778928 277.136661,140.002832 266.537474,143.647245 C266.468199,143.71733 266.468199,143.71733 266.398923,143.71733 C266.260371,143.787414 266.052544,143.857499 265.913993,143.927584 C262.242379,145.259197 257.531629,145.189112 251.781743,141.754953 C250.326953,140.913935 244.299964,136.778928 245.754755,122.551701 C245.82403,122.061107 250.53478,82.8836679 250.465504,74.8939934 C250.465504,74.052975 250.04985,72.3709383 249.357093,71.7401745 C249.287817,71.6700897 249.010714,71.4598351 248.317957,71.4598351 L247.763751,71.4598351 L247.625199,71.3897502 C246.793891,71.5299199 241.875314,73.2820415 234.185707,89.5417299 L231.691781,95.7792828 C229.544233,102.016836 228.435822,121.430343 227.465961,132.714006 C226.981031,138.811389 222.893763,143.787414 217.074602,145.189112 C213.056609,146.100215 208.276584,145.749791 202.803801,142.455802 C202.665249,142.385717 200.171323,140.98402 198.300878,137.690031 C191.165478,142.736141 190.195618,147.151488 184.168629,147.782252 C184.168629,147.782252 183.960802,147.852336 183.545147,147.852336 C181.259048,148.062591 173.43089,148.272846 166.434041,142.946396 C162.693152,140.143001 159.852847,136.288334 157.913126,131.452478 C154.795718,137.970371 149.184384,146.520724 140.663469,150.095052 C134.497929,152.688192 127.778183,152.337768 120.642783,149.043779 C120.36568,148.903609 115.585654,146.1703 113.161004,142.806226 C111.731151,140.896776 108.03476,135.404497 107.178801,121.162773 C103.30949,124.751721 98.1204334,127.839923 91.91781,130.865817 C91.5096857,151.848914 89.5613226,172.210358 85.6188298,186.82578 C70.2376777,243.776007 -18.0307359,251.271302 3.30888058,175.968111 C9.47519832,154.322822 31.9926508,130.996345 66.288463,113.694123 C66.9120232,101.99586 66.4270319,69.7730996 61.3692657,60.6666673 C51.66944,43.1542973 77.5125469,28.7241045 83.5402958,45.3258312 C87.6844234,56.6062918 90.6551846,79.3051034 91.6427777,104.279632 C98.713376,100.640754 104.858219,95.7686878 107.963359,88.2314652 Z M52.8320578,1.9314142 C57.7526377,-0.988080657 66.9103836,-1.486531 73.6078395,6.84471043 C78.9384677,13.5381864 67.2520905,21.5133919 67.1154077,21.5845991 C64.4500936,23.0799501 58.2310274,27.13876 54.6772752,26.9963457 C50.6451334,26.8539313 45.2461638,25.7858234 43.2642636,19.305969 C41.5557289,13.6806008 48.5265504,4.4948731 52.8320578,1.9314142 Z M337.822203,87.6494386 C340.039026,83.7947711 340.731783,80.6409522 339.831199,78.678576 C339.207717,77.2768788 337.752927,76.7862847 337.614375,76.7161999 C334.496967,75.9452664 331.795214,76.2956907 329.301288,77.9076425 C323.343575,81.76231 320.50327,91.4340212 319.394858,96.5502163 C332.34942,97.1108952 337.752927,87.7195234 337.822203,87.6494386 Z M58.5978869,188.296819 C64.2099289,177.229002 67.32773,159.296335 68.0898592,141.573816 C48.4823544,151.520843 27.6277292,169.593608 26.7963156,190.048056 C26.0341864,207.07008 48.4823544,208.120822 58.5978869,188.296819 Z M334.52149,180.123092 C348.310379,184.38564 350.389106,190.255379 348.310379,197.382919 C346.023779,205.209238 335.976599,208.353741 328.3546,206.467039 C179.171295,168.942637 110.91976,210.100687 106.623725,194.797439 C104.544998,187.530143 107.316634,183.477228 120.204741,180.402603 C249.917303,149.097329 328.631764,178.306268 334.52149,180.123092 Z" id="Shape" fill="#172328"></path>
    </g>
</svg>
