<?xml version="1.0" encoding="UTF-8"?>
<svg width="145px" height="90px" viewBox="0 0 145 90" version="1.1" xmlns="http://www.w3.org/2000/svg" xmlns:xlink="http://www.w3.org/1999/xlink">
    <!-- Generator: Sketch 54.1 (76490) - https://sketchapp.com -->
    <title>Slice 1</title>
    <desc>Created with Sketch.</desc>
    <g id="Page-1" stroke="none" stroke-width="1" fill="none" fill-rule="evenodd">
        <path d="M42.0587218,34.1415525 C42.1818398,30.8647395 42.2909436,27.4839178 42.3037142,25.2851963 C42.3308014,23.0761054 43.4955528,21.112469 45.4729215,20.2670145 C46.8814581,19.6670145 48.6963033,19.5851963 51.0258061,20.7851963 C51.6217254,21.0579236 54.0866644,22.5306508 53.815792,28.1215599 C53.815792,28.312469 52.9490003,44.8670145 53.1656982,47.9761054 C53.2198727,48.3033781 53.4094834,48.9579236 53.6803558,49.1761054 C53.7074431,49.2033781 53.815792,49.2851963 54.0866644,49.2579236 L54.3033624,49.2306508 L54.3575369,49.2579236 C54.6554965,49.1488327 56.5245162,48.3579236 59.1519787,41.8397418 L59.964596,39.3579236 C60.6688643,36.8488327 60.9939112,27.9033781 61.1022601,23.4851963 C61.1564346,21.0851963 62.6191457,19.0397418 64.8673868,18.3579236 C66.3842723,17.8942872 68.253292,17.9488327 70.4473586,19.0942872 C70.5557076,19.1488327 74.1583108,20.9215599 73.1831701,26.512469 L72.5872507,33.412469 L71.9371569,41.3215599 C71.8017207,44.2942872 72.0455059,47.512469 72.9122976,47.6488327 C74.402096,47.7033781 73.9957873,47.1033781 77.1649946,44.4579236 L77.4358671,42.112469 L78.546444,34.2851963 C78.8444037,31.3397418 78.7902292,28.8033781 78.9256654,27.0579236 C79.2507123,23.5670145 79.1423633,20.4579236 80.3612892,19.3670145 C81.5802151,18.2488327 83.8013689,18.5488327 86.4288314,20.7579236 C87.837368,21.9306508 88.8666832,23.4851963 89.516777,25.3942872 C90.9253136,22.9397418 93.2819037,19.7761054 96.7219834,18.5761054 C99.1869224,17.7306508 101.841472,18.0033781 104.550196,19.4488327 C104.658545,19.4761054 106.446303,20.6761054 107.340182,22.012469 C107.990276,22.9670145 109.805121,25.9942872 109.019591,34.4761054 C108.857068,36.2215599 108.423672,39.9306508 108.044451,43.612469 C108.748719,43.1488327 110.455215,40.5033781 112.784718,37.0670145 C115.005872,25.5579236 124.35097,22.7215599 124.757279,22.612469 C131.23113,20.5942872 136.269357,20.9215599 139.736524,23.5942872 C144.233006,27.0579236 144.205919,33.112469 144.09757,33.5215599 L144.09757,33.5761054 C143.691261,39.1670145 139.899047,43.012469 133.073062,44.7033781 C129.416285,45.6033781 125.867856,45.6579236 124.16136,45.6033781 C123.971749,48.8761054 126.382513,51.2215599 126.490862,51.3306508 C130.581036,54.9306508 137.136148,49.3397418 137.190323,49.2851963 C138.896819,47.6488327 139.574,47.2670145 139.736524,47.1851963 L139.817785,47.1579236 C140.847101,46.7488327 141.551369,47.2397418 141.822241,47.4579236 C143.01408,48.4670145 142.770295,50.812469 142.52651,52.1215599 C141.768067,56.1033781 138.78847,58.7761054 133.939854,59.9215599 C131.529089,60.4942872 129.226674,60.5215599 127.980661,60.4942872 C127.411829,60.4670145 127.086782,60.4397418 127.032607,60.4397418 C122.102729,59.7851963 118.418864,57.6306508 115.818489,54.3851963 C113.218114,51.112469 113.136852,49.5033781 113.136852,49.5033781 C110.103081,53.0215599 108.206974,54.2761054 104.062626,55.6942872 C104.035539,55.7215599 104.035539,55.7215599 104.008451,55.7215599 C103.954277,55.7488327 103.873015,55.7761054 103.818841,55.8033781 C102.383217,56.3215599 100.541285,56.2942872 98.2930434,54.9579236 C97.7242113,54.6306508 95.3676213,53.0215599 95.9364534,47.4851963 C95.9635406,47.2942872 97.8054731,32.0488327 97.7783858,28.9397418 C97.7783858,28.612469 97.6158624,27.9579236 97.34499,27.712469 C97.3179027,27.6851963 97.2095537,27.6033781 96.9386813,27.6033781 L96.7219834,27.6033781 L96.6678089,27.5761054 C96.342762,27.6306508 94.4195678,28.312469 91.412884,34.6397418 L90.4377432,37.0670145 C89.5980387,39.4942872 89.1646429,47.0488327 88.7854215,51.4397418 C88.5958108,53.812469 86.9976635,55.7488327 84.7223352,56.2942872 C83.1512751,56.6488327 81.2822554,56.512469 79.1423633,55.2306508 C79.0881888,55.2033781 78.1130481,54.6579236 77.3816926,53.3761054 C74.5917067,55.3397418 74.2124853,57.0579236 71.8558952,57.3033781 C71.8558952,57.3033781 71.7746335,57.3306508 71.61211,57.3306508 C70.718231,57.412469 67.6573727,57.4942872 64.9215613,55.4215599 C63.4588502,54.3306508 62.3482733,52.8306508 61.5898305,50.9488327 C60.3709046,53.4851963 58.176838,56.812469 54.8451072,58.2033781 C52.4343427,59.212469 49.8068802,59.0761054 47.0168943,57.7942872 C46.9085453,57.7397418 45.0395256,56.6761054 44.0914721,55.3670145 C43.5356981,54.6283691 42.1041482,52.5119537 41.7584497,47.0427084 C40.279172,48.4207076 38.3004658,49.6089914 35.935755,50.7691645 C35.7758771,58.9359673 35.0141456,66.8602787 33.4732733,72.5488327 C27.4599055,94.7215599 -7.04924081,97.6397418 1.29362973,68.3215599 C3.70439427,59.8942872 12.5077479,50.812469 25.9159327,44.0761054 C26.1597179,39.5215599 25.9701072,26.9761054 23.9927385,23.4306508 C20.2005247,16.612469 30.3040659,10.9942872 32.660656,17.4579236 C34.2795031,21.8462034 35.4403664,30.6727631 35.8274262,40.3868007 C38.5412267,38.9637402 40.8825567,37.0600797 42.0587218,34.1415525 Z M20.7151823,0.739741752 C22.6654637,-0.378440066 26.2951541,-0.569349157 28.9497038,2.62155993 C31.0625087,5.1851963 26.4305903,8.23974175 26.3764158,8.26701448 C25.3200134,8.83974175 22.8550744,10.3942872 21.4465378,10.3397418 C19.8483905,10.2851963 17.7084984,9.87610539 16.9229684,7.39428721 C16.2457873,5.23974175 19.008686,1.72155993 20.7151823,0.739741752 Z M131.935398,33.9033781 C132.80219,32.4033781 133.073062,31.1761054 132.720928,30.412469 C132.477143,29.8670145 131.908311,29.6761054 131.854136,29.6488327 C130.63521,29.3488327 129.578808,29.4851963 128.603667,30.112469 C126.274164,31.612469 125.163588,35.3761054 124.730192,37.3670145 C129.795506,37.5851963 131.908311,33.9306508 131.935398,33.9033781 Z M22.9092489,73.1215599 C25.1033155,68.812469 26.3222414,61.8306508 26.620201,54.9306508 C18.9545115,58.8033781 10.8012517,65.8397418 10.4762048,73.8033781 C10.1782451,80.4306508 18.9545115,80.8397418 22.9092489,73.1215599 Z M130.63521,70.0397418 C136.025572,71.7033781 136.838189,73.9942872 136.025572,76.7761054 C135.131693,79.8306508 131.204042,81.0579236 128.224446,80.3215599 C69.9056138,65.6761054 43.2246804,81.7397418 41.5452714,75.7670145 C40.7326541,72.9306508 41.8161438,71.3488327 46.8543708,70.1488327 C97.5616879,57.9306508 128.332795,69.3306508 130.63521,70.0397418 Z" id="Shape" fill="#172328"></path>
    </g>
</svg>