<!-- Generated by IcoMoon.io -->
<svg version="1.1" xmlns="http://www.w3.org/2000/svg" width="43" height="32" viewBox="0 0 43 32">
<title>june</title>
<path d="M6.478 5.821c0.418 0.030 1.164-0.448 1.463-0.627 0.030 0 1.403-0.925 0.776-1.672-0.806-0.955-1.881-0.896-2.448-0.567-0.507 0.298-1.313 1.313-1.134 1.97 0.239 0.746 0.866 0.866 1.343 0.896z"></path>
<path d="M41.612 9.731c-1.015-0.776-2.537-0.896-4.448-0.299-0.119 0.030-2.896 0.866-3.552 4.269-0.687 1.015-1.194 1.791-1.403 1.94 0.119-1.104 0.239-2.179 0.298-2.687 0.239-2.507-0.298-3.403-0.507-3.672-0.269-0.388-0.806-0.746-0.836-0.746-0.806-0.418-1.582-0.507-2.328-0.269-1.015 0.358-1.731 1.284-2.149 2-0.209-0.567-0.507-1.015-0.925-1.373-0.776-0.657-1.433-0.746-1.791-0.418s-0.328 1.254-0.418 2.269c-0.030 0.507-0.030 1.254-0.119 2.149l-0.328 2.299-0.090 0.687c-0.955 0.776-0.806 0.955-1.254 0.925-0.269-0.030-0.328-0.985-0.299-1.881l0.179-2.328 0.179-2.030c0.299-1.642-0.776-2.179-0.806-2.179-0.657-0.328-1.224-0.358-1.672-0.209-0.657 0.209-1.104 0.806-1.134 1.522-0.030 1.313-0.119 3.94-0.328 4.687l-0.239 0.746c-0.776 1.91-1.343 2.149-1.433 2.179h-0.090c-0.090 0-0.119 0-0.119-0.030-0.090-0.060-0.149-0.269-0.149-0.358 0-0.955 0.269-5.821 0.269-5.881 0.090-1.642-0.657-2.090-0.836-2.179-0.687-0.358-1.224-0.328-1.642-0.149-0.597 0.239-0.925 0.836-0.955 1.493 0 0.627-0.030 1.612-0.060 2.567-0.358 0.896-1.045 1.463-1.881 1.91-0.119-2.866-0.448-5.493-0.955-6.776-0.716-1.91-3.701-0.239-2.567 1.761 0.597 1.045 0.657 4.746 0.567 6.090-3.97 2-6.597 4.657-7.313 7.164-2.478 8.657 7.791 7.791 9.552 1.254 0.448-1.672 0.687-4 0.746-6.418 0.716-0.358 1.313-0.716 1.761-1.134 0.090 1.612 0.537 2.239 0.687 2.448 0.299 0.388 0.836 0.716 0.866 0.716 0.836 0.388 1.612 0.418 2.328 0.119 0.985-0.418 1.642-1.403 2-2.149 0.239 0.567 0.567 0.985 0.985 1.313 0.806 0.597 1.731 0.597 2 0.567 0.030 0 0.060 0 0.090 0 0.687-0.090 0.806-0.567 1.642-1.164 0.209 0.388 0.507 0.537 0.537 0.537 0.627 0.388 1.194 0.418 1.642 0.328 0.687-0.149 1.164-0.746 1.224-1.433 0.119-1.284 0.239-3.522 0.507-4.239l0.299-0.716c0.896-1.851 1.463-2.060 1.552-2.090h0.090c0.090 0 0.119 0.030 0.119 0.030 0.090 0.060 0.119 0.269 0.119 0.358 0 0.925-0.537 5.433-0.537 5.463-0.179 1.642 0.537 2.119 0.716 2.209 0.657 0.388 1.224 0.388 1.642 0.239 0.030 0 0.030-0.030 0.060-0.030 0 0 0 0 0.030 0 1.224-0.418 1.791-0.776 2.687-1.821 0 0 0.030 0.478 0.806 1.433s1.881 1.582 3.343 1.791c0 0 0.119 0 0.298 0 0.358 0 1.045 0 1.761-0.179 1.433-0.328 2.328-1.134 2.567-2.299 0.060-0.388 0.149-1.075-0.209-1.373-0.090-0.060-0.298-0.209-0.597-0.090h-0.030c-0.060 0.030-0.239 0.149-0.746 0.627-0.030 0.030-1.97 1.672-3.194 0.597-0.030-0.030-0.746-0.716-0.687-1.701 0.507 0 1.552 0 2.657-0.269 2.030-0.507 3.164-1.642 3.284-3.284v-0.030c-0.119 0-0.119-1.791-1.463-2.806zM6.896 24.328c-1.164 2.269-3.791 2.149-3.701 0.209 0.090-2.358 2.507-4.418 4.806-5.582-0.090 2.060-0.448 4.119-1.104 5.373zM39.313 12.776c0 0-0.627 1.075-2.149 1.015 0.119-0.597 0.448-1.701 1.134-2.149 0.298-0.179 0.597-0.239 0.955-0.149 0 0 0.179 0.060 0.269 0.239 0.119 0.239 0.030 0.597-0.209 1.045z"></path>
<path d="M38.925 23.433c-0.687-0.209-9.821-3.582-24.896 0.030-1.493 0.358-1.821 0.806-1.582 1.672 0.507 1.761 8.418-2.985 25.761 1.343 0.896 0.209 2.060-0.149 2.328-1.045 0.239-0.836 0-1.522-1.612-2z"></path>
</svg>
