<!-- Generated by IcoMoon.io -->
<svg version="1.1" xmlns="http://www.w3.org/2000/svg" width="32" height="32" viewBox="0 0 32 32">
<title>list</title>
<path fill="#000" d="M6.077 25.114c0 1.436-1.136 2.6-2.538 2.6s-2.538-1.164-2.538-2.6c0-1.436 1.136-2.6 2.538-2.6s2.538 1.164 2.538 2.6z"></path>
<path fill="#000" d="M10.401 23.73h18.403c0.849 0 1.536 0.688 1.536 1.536s-0.688 1.536-1.536 1.536h-18.403c-0.848 0-1.536-0.688-1.536-1.536s0.688-1.536 1.536-1.536z"></path>
<path fill="#000" d="M6.077 15.66c0 1.436-1.136 2.6-2.538 2.6s-2.538-1.164-2.538-2.6c0-1.436 1.136-2.6 2.538-2.6s2.538 1.164 2.538 2.6z"></path>
<path fill="#000" d="M10.401 14.275h18.403c0.849 0 1.536 0.688 1.536 1.536s-0.688 1.536-1.536 1.536h-18.403c-0.848 0-1.536-0.688-1.536-1.536s0.688-1.536 1.536-1.536z"></path>
<path fill="#000" d="M6.077 6.205c0 1.436-1.136 2.6-2.538 2.6s-2.538-1.164-2.538-2.6c0-1.436 1.136-2.6 2.538-2.6s2.538 1.164 2.538 2.6z"></path>
<path fill="#000" d="M10.401 4.821h18.403c0.849 0 1.536 0.688 1.536 1.536s-0.688 1.536-1.536 1.536h-18.403c-0.848 0-1.536-0.688-1.536-1.536s0.688-1.536 1.536-1.536z"></path>
</svg>
