<!-- Generated by IcoMoon.io -->
<svg version="1.1" xmlns="http://www.w3.org/2000/svg" width="32" height="32" viewBox="0 0 32 32">
<title>loupe</title>
<path d="M30.191 27.564l-2.899 2.899 0.953-0-7.446-7.445-0.008 0.96 2.946-2.853-0.945-0.008 7.399 7.398-0-0.953zM31.143 28.517c0.263-0.263 0.263-0.69-0-0.953l-7.399-7.398c-0.26-0.26-0.681-0.263-0.945-0.008l-2.946 2.853c-0.27 0.262-0.274 0.694-0.008 0.96l7.446 7.445c0.263 0.263 0.69 0.263 0.953-0l2.899-2.899z"></path>
<path d="M13.011 1.668c6.442 0 11.664 5.222 11.664 11.664s-5.222 11.663-11.664 11.663-11.664-5.222-11.664-11.663c0-6.442 5.222-11.664 11.664-11.664v0zM13.011 0.321c-7.186 0-13.011 5.825-13.011 13.011s5.825 13.010 13.011 13.010 13.011-5.825 13.011-13.010c0-7.186-5.825-13.011-13.011-13.011v0z"></path>
<path d="M13.304 4.007c5.156 0 9.335 4.179 9.335 9.335 0 0.372 0.302 0.674 0.674 0.674s0.674-0.302 0.674-0.674c0-5.9-4.782-10.682-10.682-10.682-0.372 0-0.674 0.302-0.674 0.674s0.302 0.674 0.674 0.674v0z"></path>
<path d="M12.163 8.011v1.956c0 0.372 0.302 0.674 0.674 0.674s0.674-0.302 0.674-0.674v-1.956c0-0.372-0.302-0.674-0.674-0.674s-0.674 0.302-0.674 0.674v0z"></path>
<path d="M12.163 18.771v1.956c0 0.372 0.302 0.674 0.674 0.674s0.674-0.302 0.674-0.674v-1.956c0-0.372-0.302-0.674-0.674-0.674s-0.674 0.302-0.674 0.674v0z"></path>
<path d="M15.854 10.422c-1.436-0.477-1.852-0.597-2.557-0.689-0.055-0.007-0.055-0.007-0.11-0.013-2.339-0.263-4.125 0.768-4.288 2.381-0.168 1.661 1.456 2.889 3.934 2.882 1.715-0.005 2.604 0.674 2.541 1.41-0.065 0.756-1.086 1.354-2.754 1.166-0.024-0.003-0.024-0.003-0.048-0.006-0.592-0.073-0.967-0.181-2.339-0.637-0.353-0.117-0.734 0.074-0.852 0.427s0.074 0.734 0.427 0.852c1.47 0.488 1.882 0.608 2.599 0.696 0.031 0.004 0.031 0.004 0.061 0.007 2.345 0.265 4.109-0.768 4.248-2.389 0.141-1.649-1.467-2.88-3.887-2.872-1.77 0.005-2.663-0.67-2.59-1.399 0.077-0.758 1.128-1.366 2.797-1.178 0.043 0.005 0.043 0.005 0.086 0.010 0.585 0.076 0.964 0.186 2.307 0.632 0.353 0.117 0.734-0.074 0.852-0.427s-0.074-0.734-0.427-0.852v0z"></path>
</svg>
