<!-- Generated by IcoMoon.io -->
<svg version="1.1" xmlns="http://www.w3.org/2000/svg" width="59" height="32" viewBox="0 0 59 32">
<title>lucie</title>
<path fill="#000" d="M10.767 4.825c0.311-0.34 0.844-0.733 1.123-0.733 0.033 0 0.062 0.005 0.087 0.016 0.126 0.176 0.603 0.961 0.070 2.136l-0.014 0.035c-0.014 0.041-1.105 3.119-3.724 6.473 0.629-4.057 1.482-6.801 2.458-7.927zM51.685 15.788c0.2-0.714 0.678-2.070 1.549-2.631 0.36-0.232 0.745-0.296 1.178-0.195 0.017 0.006 0.219 0.074 0.297 0.269 0.107 0.266-0.020 0.709-0.36 1.25-0.009 0.015-0.85 1.331-2.664 1.307zM57.383 10.729c-1.184-0.924-2.992-0.995-5.362-0.213-0.155 0.047-3.81 1.213-4.721 5.699-0.020 0.084-0.309 1.339-0.159 2.822l-0.302 0.419c-0.984 1.367-1.618 1.503-1.813 1.435l-0.060-0.033c-0.206-0.111-0.251-1.169 0-2.3l0.72-2.77 0.642-2.417c0.699-1.944-0.486-2.681-0.522-2.701-1.519-1.001-3.117-0.161-3.749 0.423l-0.225 0.208 0.131 0.276c0.77 1.623-0.684 4.613-0.803 4.853l-0.912 1.45c-0.897 1.369-3.212 2.55-3.235 2.562l0.007 0.014c-0.473 0.251-2.542 1.24-3.987 0.17l-0.035-0.023c-0.032-0.020-0.783-0.517-0.621-2.373 0.002-0.034 0.225-3.381 1.356-4.697l0.031-0.041c0.024-0.036 0.603-0.869 1.76-0.67 0.261 0.043 0.844 0.235 0.983 0.557 0.081 0.187 0.012 0.444-0.204 0.764l-0.033 0.059c-0.001 0.002-0.119 0.224-0.609 0.564l-0.037 0.029c-0.421 0.369-0.468 0.735-0.433 0.977 0.092 0.636 0.832 0.995 0.915 1.034l0.076 0.026c0.894 0.221 1.664 0.114 2.29-0.316 1.121-0.771 1.319-2.298 1.329-2.382 0.007-0.091 0.154-2.251-1.385-3.452-1.185-0.924-2.992-0.995-5.363-0.212-0.155 0.047-3.81 1.213-4.721 5.699-0.021 0.086-0.321 1.389-0.15 2.912-1.189 1.628-2.376 1.73-2.708 1.735-0.169-0.229-0.189-1.213 0.043-2.26l0.72-2.77 0.642-2.416c0.699-1.944-0.486-2.681-0.522-2.701-1.519-1.001-3.117-0.161-3.749 0.423l-0.225 0.208 0.131 0.276c0.666 1.404-0.623 4.75-1.168 5.905l-0.45 0.854c-1.344 2.215-2.061 2.44-2.181 2.463l-0.020-0.007-0.076 0.002c-0.102 0-0.13-0.028-0.144-0.043-0.087-0.091-0.115-0.321-0.108-0.436 0.114-1.105 1.448-6.915 1.462-6.976 0.438-1.965-0.347-2.561-0.542-2.675-1.516-0.989-3.107-0.152-3.738 0.431l-0.213 0.197 0.11 0.268c0.591 1.435-0.423 5.265-0.866 6.627-0.033 0.109-0.063 0.214-0.091 0.319-0.249 0.351-0.627 0.864-0.986 1.282-0.918 0.734-3.5 2.346-4.876 1.371-0.049-0.038-1.196-0.939-0.986-2.399l0.003-0.034c0-0.007 0.011-0.182 0.035-0.488 1.507-1.562 3.704-4.204 5.797-8.067 0.125-0.215 3.042-5.305 1.745-8.2-0.428-0.954-1.245-1.563-2.432-1.812-0.15-0.035-1.212-0.245-2.551 0.559-2.699 1.622-4.164 5.905-4.921 9.221-0.576 2.78-0.87 5.178-0.882 7.186-0.92 1.719-2.097 2.149-2.165 2.173-0.55 0.202-1.513 0.7-1.553 0.721l-0.068 0.044c-0.402 0.319-0.367 0.622-0.311 0.775 0.051 0.138 0.2 0.545 1.579 0.545 0.076 0 0.156-0.001 0.24-0.004l0.069-0.008c1.322-0.263 2.092-0.578 2.539-0.845 0.291 1.244 0.774 2.218 1.451 2.916 0.941 0.97 1.994 1.112 2.528 1.112 0.15 0 0.258-0.011 0.313-0.018 0.357-0.009 3.433-0.144 5.505-2.169 0.39 0.851 0.957 1.189 1.001 1.214 0.919 0.538 1.854 0.667 2.782 0.385 1.283-0.39 2.268-1.494 2.87-2.354 0.158 0.685 0.464 1.247 0.916 1.677 0.855 0.814 1.955 0.878 2.278 0.878 0.055 0 0.087-0.002 0.093-0.002 1.75-0.036 3.672-1.713 4.513-2.537 0.048 0.076 0.098 0.152 0.151 0.226 0.837 1.181 2.145 1.874 3.888 2.059l0.040 0.002c0.018 0 0.040 0 0.068 0 0.506 0 2.534-0.044 4.055-0.7 1.624-0.58 2.737-1.378 3.382-1.946 0.127 0.842 0.456 1.519 0.981 2.019 0.855 0.814 1.954 0.878 2.278 0.878 0.055 0 0.087-0.002 0.093-0.002 2.011-0.042 3.623-1.923 4.048-2.467 0.043 0.068 0.087 0.135 0.134 0.201 0.837 1.181 2.146 1.874 3.905 2.061 0.015 0.001 0.14 0.009 0.343 0.009 0.447 0 1.273-0.037 2.155-0.261 1.771-0.45 2.9-1.44 3.265-2.865 0.117-0.47 0.252-1.311-0.153-1.661-0.089-0.077-0.338-0.24-0.718-0.087l-0.030 0.014c-0.061 0.030-0.31 0.176-0.965 0.773-0.025 0.021-2.502 2.082-3.894 0.826-0.038-0.037-0.856-0.853-0.713-2.019 0.613 0.002 1.889-0.047 3.225-0.403 2.489-0.662 3.946-2.072 4.213-4.079l0.002-0.024c0.007-0.091 0.154-2.251-1.386-3.452zM45.787 8.497c0.042-0.011 1.417-0.625 2.068-2.226 0.058-0.142 0.090-0.289 0.093-0.439 0.003-0.204-0.047-0.497-0.309-0.741-0.853-0.797-1.54-1.159-2.314-0.96-1.255 0.323-2.253 1.528-2.273 2.744-0.007 0.449 0.159 0.845 0.48 1.145 0.523 0.488 1.45 0.684 2.255 0.477zM51.85 28.231c-0.853-0.162-21.17-3.922-45.298-0.343-0.511 0.045-2.059 0.27-2.464 1.346-0.164 0.436-0.183 1.137 0.654 2.005 0.237 0.258 0.706 0.472 1.611 0.472 0.878 0 2.166-0.202 4.051-0.763 0.626-0.134 12.987-2.674 36.599-0.738 1.012 0.075 3.763 0.29 4.333 0.379l0.040 0.005c0.736 0.078 1.304-0.155 1.534-0.614 0.152-0.231 0.245-0.557 0.13-0.906-0.144-0.438-0.544-0.721-1.19-0.844zM58.534 30.312c-0.377-0.568-1.904-1.222-2.384-1.301-0.686-0.112-1.339 0.272-1.486 0.876-0.057 0.236-0.004 0.481 0.152 0.723 0.228 0.344 0.664 0.622 1.085 0.691 0.025 0.004 2.515 0.355 2.731-0.531 0.025-0.103 0.029-0.265-0.095-0.454-0.001-0.001-0.002-0.002-0.002-0.004z"></path>
</svg>
