<!-- Generated by IcoMoon.io -->
<svg version="1.1" xmlns="http://www.w3.org/2000/svg" width="32" height="32" viewBox="0 0 32 32">
<title>personal</title>
<path d="M31.4 16c0-8.505-6.895-15.4-15.4-15.4s-15.4 6.895-15.4 15.4c0 8.505 6.895 15.4 15.4 15.4s15.4-6.895 15.4-15.4zM1.4 16c0-8.063 6.537-14.6 14.6-14.6s14.6 6.537 14.6 14.6c0 8.063-6.537 14.6-14.6 14.6s-14.6-6.537-14.6-14.6z"></path>
<path d="M12.886 18.417c-1.44 0-4.295 0.844-4.621 2.473l-0.259 1.557c-0.043 0.259 0.132 0.504 0.391 0.547 0.026 0.004 0.053 0.007 0.079 0.007 0.228 0 0.429-0.165 0.468-0.397l0.257-1.541c0.184-0.918 2.395-1.694 3.686-1.694 0.262 0 0.475-0.213 0.475-0.475s-0.214-0.476-0.476-0.476v0zM18.99 16.82c0.439-0.658 1.027-2.123 1.253-2.706 0.375-0.142 0.643-0.506 0.643-0.931v-1.038c0-0.376-0.21-0.705-0.519-0.873v-0.424c0-1.157-0.425-3.848-4.367-3.848-2.735 0-4.367 1.439-4.367 3.848v0.429c-0.307 0.172-0.519 0.501-0.519 0.869v1.038c0 0.425 0.268 0.788 0.643 0.931 0.227 0.584 0.815 2.048 1.253 2.706l0.040 0.061c0.334 0.506 0.955 1.448 2.95 1.448s2.616-0.942 2.949-1.448l0.041-0.061zM18.199 16.293l-0.043 0.066c-0.3 0.455-0.673 1.020-2.156 1.020s-1.856-0.566-2.156-1.021l-0.043-0.065c-0.482-0.724-1.24-2.737-1.248-2.757-0.070-0.186-0.247-0.309-0.445-0.309-0.024 0-0.044-0.020-0.044-0.044v-1.038c0.001-0.013 0.029-0.041 0.044-0.044 0.262 0 0.475-0.213 0.475-0.475v-0.778c0-1.322 0.593-2.898 3.417-2.898s3.417 1.576 3.417 2.898v0.778c0 0.262 0.213 0.475 0.475 0.475 0.024 0 0.044 0.020 0.044 0.044v1.038c0 0.024-0.020 0.044-0.044 0.044-0.198 0-0.375 0.123-0.445 0.309-0.211 0.563-0.847 2.156-1.248 2.757v0zM19.114 18.427c-0.262 0-0.475 0.213-0.475 0.475s0.213 0.475 0.475 0.475c1.517 0 3.499 0.751 3.683 1.668l0.259 1.557c0.039 0.233 0.24 0.397 0.468 0.397 0.026 0 0.052-0.002 0.079-0.007 0.259-0.043 0.434-0.288 0.391-0.547l-0.262-1.572c-0.319-1.597-2.887-2.447-4.618-2.447z"></path>
</svg>
