<!-- Generated by IcoMoon.io -->
<svg version="1.1" xmlns="http://www.w3.org/2000/svg" width="32" height="32" viewBox="0 0 32 32">
<title>usage</title>
<path d="M31.4 16c0-8.505-6.895-15.4-15.4-15.4s-15.4 6.895-15.4 15.4c0 8.505 6.895 15.4 15.4 15.4s15.4-6.895 15.4-15.4zM1.4 16c0-8.063 6.537-14.6 14.6-14.6s14.6 6.537 14.6 14.6c0 8.063-6.537 14.6-14.6 14.6s-14.6-6.537-14.6-14.6z"></path>
<path d="M24.533 10.26c-0.827-0.131-1.609 0.403-1.732 1.185-0.062 0.394 0.055 0.779 0.291 1.082l-2.958 3.74c-0.093-0.033-0.19-0.063-0.291-0.079-0.506-0.080-0.995 0.087-1.327 0.409l-3.535-1.758c0.003-0.015 0.005-0.030 0.007-0.044 0.124-0.781-0.454-1.531-1.281-1.662s-1.609 0.403-1.732 1.185c-0.062 0.394 0.055 0.779 0.291 1.082l-2.958 3.74c-0.093-0.033-0.19-0.063-0.291-0.079-0.827-0.131-1.609 0.403-1.732 1.185s0.454 1.531 1.281 1.662c0.827 0.131 1.609-0.403 1.732-1.185 0.062-0.394-0.055-0.779-0.291-1.082l2.958-3.74c0.093 0.033 0.19 0.063 0.291 0.079 0.51 0.081 0.997-0.095 1.329-0.421l3.534 1.765c-0.003 0.017-0.005 0.034-0.008 0.051-0.124 0.781 0.454 1.531 1.281 1.662s1.609-0.403 1.732-1.185c0.062-0.394-0.055-0.779-0.291-1.082l2.964-3.739c0.091 0.032 0.185 0.062 0.284 0.078 0.827 0.131 1.609-0.403 1.732-1.185s-0.454-1.531-1.281-1.662v0zM16.857 15.119c0.362 0.057 0.603 0.371 0.549 0.712s-0.381 0.565-0.742 0.508c-0.362-0.057-0.603-0.371-0.549-0.712s0.381-0.565 0.742-0.508v0zM15.87 14.963c0.362 0.057 0.603 0.371 0.549 0.712s-0.381 0.565-0.742 0.508c-0.362-0.057-0.603-0.371-0.549-0.712s0.381-0.565 0.742-0.508v0zM16.857 15.119c0.362 0.057 0.603 0.371 0.549 0.712s-0.381 0.565-0.742 0.508c-0.362-0.057-0.603-0.371-0.549-0.712s0.381-0.565 0.742-0.508v0zM15.87 14.963c0.362 0.057 0.603 0.371 0.549 0.712s-0.381 0.565-0.742 0.508c-0.362-0.057-0.603-0.371-0.549-0.712s0.381-0.565 0.742-0.508v0z"></path>
</svg>
