<!-- Generated by IcoMoon.io -->
<svg version="1.1" xmlns="http://www.w3.org/2000/svg" width="32" height="32" viewBox="0 0 32 32">
<title>warranty</title>
<path d="M15.594 19.769l5.284-6.845c0.207-0.251 0.145-0.617-0.145-0.81-0.269-0.193-0.663-0.135-0.87 0.135l-4.829 6.247-2.963-3.066c-0.228-0.231-0.622-0.251-0.87-0.039s-0.269 0.578-0.041 0.81l3.461 3.606c0.124 0.116 0.29 0.193 0.456 0.193h0.041c0.187 0 0.352-0.096 0.477-0.231z"></path>
<path d="M31.4 16c0-8.505-6.895-15.4-15.4-15.4s-15.4 6.895-15.4 15.4c0 8.505 6.895 15.4 15.4 15.4s15.4-6.895 15.4-15.4zM1.4 16c0-8.063 6.537-14.6 14.6-14.6s14.6 6.537 14.6 14.6c0 8.063-6.537 14.6-14.6 14.6s-14.6-6.537-14.6-14.6z"></path>
</svg>
