<?xml version="1.0" encoding="UTF-8"?>
<svg width="30px" height="30px" viewBox="0 0 30 30" version="1.1" xmlns="http://www.w3.org/2000/svg" xmlns:xlink="http://www.w3.org/1999/xlink">
    <!-- Generator: Sketch 53.2 (72643) - https://sketchapp.com -->
    <title>Icons / Calendar (1)</title>
    <desc>Created with Sketch.</desc>
    <defs>
        <path d="M19.2542027,7.22498036 L19.2542027,6.25970149 C19.2542027,5.78490147 19.6391041,5.4 20.1139042,5.4 C20.5887042,5.4 20.9736057,5.78490147 20.9736057,6.25970149 L20.9736057,7.22498036 L22.0444619,7.22498036 C23.1106124,7.22498036 23.9750196,8.08938759 23.9750196,9.1555381 L23.9750196,22.6694423 C23.9750196,23.7355928 23.1106124,24.6 22.0444619,24.6 L8.53055774,24.6 C7.46440723,24.6 6.6,23.7355928 6.6,22.6694423 L6.6,9.1555381 C6.6,8.08938759 7.46440723,7.22498036 8.53055774,7.22498036 L9.60141398,7.22498036 L9.60141398,6.25970149 C9.60141398,5.78490147 9.98631545,5.4 10.4611155,5.4 C10.9359155,5.4 11.320817,5.78490147 11.320817,6.25970149 L11.320817,7.22498036 L19.2542027,7.22498036 Z M8.53055774,12.9110762 L8.53055774,22.6694423 L22.0444619,22.6694423 L22.0444619,12.9110762 L8.53055774,12.9110762 Z M8.53055774,11.1916732 L22.0444619,11.1916732 L22.0444619,9.1555381 L8.53055774,9.1555381 L8.53055774,11.1916732 Z M13.5982718,16.0482325 C13.1234718,16.0482325 12.7385703,15.6633311 12.7385703,15.188531 C12.7385703,14.713731 13.1234718,14.3288295 13.5982718,14.3288295 L17.4593873,14.3288295 C18.290262,14.3288295 18.637805,15.3904495 17.9677835,15.8817986 C16.5056145,16.9540559 15.9058916,18.1864864 15.9058916,20.0149254 C15.9058916,20.4897254 15.5209901,20.8746269 15.0461901,20.8746269 C14.5713901,20.8746269 14.1864886,20.4897254 14.1864886,20.0149254 C14.1864886,18.4490471 14.5596581,17.1525642 15.3663467,16.0482325 L13.5982718,16.0482325 Z" id="path-1"></path>
    </defs>
    <g id="Icons-/-Calendar-(1)" stroke="none" stroke-width="1">
        <mask id="mask-2" >
            <use xlink:href="#path-1"></use>
        </mask>
        <use id="Color" xlink:href="#path-1"></use>
    </g>
</svg>
