<?xml version="1.0" encoding="UTF-8"?>
<svg width="30px" height="30px" viewBox="0 0 30 30" version="1.1" xmlns="http://www.w3.org/2000/svg" xmlns:xlink="http://www.w3.org/1999/xlink">
    <!-- Generator: Sketch 53.2 (72643) - https://sketchapp.com -->
    <title>Icons / Gas</title>
    <desc>Created with Sketch.</desc>
    <g id="Icons-/-Gas" stroke="none" stroke-width="1">
        <path d="M12.1301365,11.7510967 C9.24752452,15.8545639 7.52681569,20.2108993 10.7091487,23.4642315 C11.6311029,24.4069512 12.7244185,24.8867471 13.8413849,25 C12.0353179,24.4830859 10.689798,22.7159609 12.2580662,19.5552134 C13.222592,17.6111439 15.6246611,15.3218323 14.8248314,12.6252742 C14.8248314,12.6252742 16.9871666,15.2971571 15.514577,19.3692003 C14.8456872,21.2187869 17.7934465,21.4208284 16.9949069,19.4016788 C16.511999,18.1816265 19.2744215,21.8263877 17.7867813,23.932217 C19.1905684,22.9806394 19.9504066,21.4145014 20.5077072,19.7420702 C22.0886609,15.0002109 20.0082437,7.35152691 12.1301365,5 C12.1301365,5 15.3199948,7.2102244 12.1301365,11.7510967 Z" id="Shape"></path>
    </g>
</svg>
