<?xml version="1.0" encoding="UTF-8"?>
<svg width="593px" height="321px" viewBox="0 0 593 321" version="1.1" xmlns="http://www.w3.org/2000/svg" xmlns:xlink="http://www.w3.org/1999/xlink">
    <!-- Generator: Sketch 54.1 (76490) - https://sketchapp.com -->
    <title>Slice 1</title>
    <desc>Created with Sketch.</desc>
    <defs>
        <path d="M187.937927,0.477120847 C85.2085533,8.36724322 4.35832924,78.8382951 8.79958269,155.690031 L9.05300913,159.481178 L9.08895614,159.478478 C16.3987812,236.111494 94.8513395,336.512986 195.936137,316.553659 C256.596721,304.576262 283.356576,235.866672 303.310763,213.2395 C330.669136,182.21546 344.097143,141.967375 341.890895,103.823683 L341.925943,103.820982 L341.634772,100.033436 L341.600623,100.036136 C337.973569,62.0013536 314.553192,42.6270798 284.805241,27.8252247 C257.809933,14.3932949 234.80025,-3.12230869 187.937927,0.477120847" id="path-1"></path>
    </defs>
    <g id="Page-1" stroke="none" stroke-width="1" fill="none" fill-rule="evenodd">
        <g id="Group-2">
            <g id="Group" transform="translate(0.250000, 0.000000)">
                <g id="Illustration-/-Blob" transform="translate(344.086022, 95.663717)" fill="#46ACA6">
                    <path d="M148.225237,184.989143 C150.061394,166.026837 166.92141,152.139307 185.884935,153.975508 C204.848461,155.808345 218.735653,172.670454 216.899497,191.634442 C215.065022,210.598429 198.205005,224.484278 179.239799,222.649759 C160.276274,220.815239 146.390763,203.95313 148.225237,184.989143 Z M212.512178,104.195661 C95.5786953,137.777614 165.947618,209.322203 107.264383,209.870198 C48.5811477,210.418194 0.561081581,163.994441 0.00485816927,106.179274 C-0.551365243,48.3657464 46.7259594,4.77385141 105.250987,0.506377328 C218.763862,-7.77426154 268.85228,88.0150269 212.512178,104.195661 Z" id="Shape"></path>
                </g>
                <g id="Illustration-/-Waves" transform="translate(390.000000, 20.000000)" fill="#3087E8">
                    <path d="M72.6553569,93.9614439 C74.0925552,92.1553689 76.7230951,91.8552189 78.5364554,93.2886939 C80.3446273,94.7195814 80.6481511,97.3484814 79.2083586,99.1519689 C77.7737545,100.958044 75.1406204,101.260781 73.3298543,99.8273064 C71.5216824,98.3938314 71.2155644,95.7675189 72.6553569,93.9614439 Z M131.524453,70.9795276 C132.961651,69.1734526 135.592191,68.8733026 137.405551,70.3041901 C139.213723,71.7376651 139.517247,74.3639776 138.077454,76.1700526 C136.64285,77.9761276 134.009716,78.2762776 132.19895,76.8453901 C130.390778,75.4093276 130.08466,72.7856026 131.524453,70.9795276 Z M190.500534,48.0224403 C192.106998,46.1867726 195.04735,45.8817046 197.074279,47.3386672 C199.095409,48.7956298 199.43468,51.4649747 197.825316,53.2980125 C196.221751,55.1336802 193.2785,55.4413781 191.25447,53.9844154 C189.233341,52.5274528 188.89117,49.858108 190.500534,48.0224403 Z M88.415767,11.3648214 C89.8555595,9.55874635 92.4860994,9.25859635 94.2968655,10.6920714 C96.1076316,12.1255464 96.4085612,14.7518589 94.9713629,16.5553464 C93.5367588,18.3614214 90.9010305,18.6641589 89.0928586,17.2306839 C87.2820925,15.7972089 86.9785687,13.1708964 88.415767,11.3648214 Z M99.8643227,1.57941385 C101.301521,-0.226661148 103.932061,-0.526811148 105.745421,0.904076352 C107.553593,2.33755135 107.857117,4.96386385 106.417324,6.76993885 C104.98272,8.57601385 102.349586,8.87616385 100.53882,7.44527635 C98.7306482,6.00921385 98.4245302,3.38548885 99.8643227,1.57941385 Z M94.9366508,75.0846149 C102.431092,69.1315823 113.040296,69.0920983 120.577092,74.9904579 L124.909441,78.3800829 C126.488501,79.6155377 126.767048,81.8971527 125.531593,83.4762127 C124.296139,85.0552726 122.014524,85.3338196 120.435464,84.0983648 L116.102744,80.7084492 C111.209768,76.879166 104.318351,76.9048136 99.4536496,80.7689745 L95.287331,84.0809745 C93.9430801,85.1495819 92.0339535,85.1301145 90.711773,84.0343174 L86.5690521,80.6009118 C81.6327202,76.5105207 74.4821539,76.4780257 69.5079518,80.5245028 L65.445402,83.8261528 C64.0771894,84.9381045 62.1078529,84.9062396 60.776331,83.7506049 L57.3583365,80.7841092 C52.4329489,76.5049092 45.1271913,76.386921 40.0641016,80.5059386 L36.2609739,83.5980011 C34.918803,84.6892283 32.9931198,84.6818822 31.6593134,83.5804467 L27.738948,80.3430731 C22.8045472,76.2668495 15.6639963,76.2391747 10.6983604,80.277557 L6.61765111,83.5973195 C5.06237133,84.8625798 2.77587181,84.6274726 1.5106115,83.0721928 C0.24535119,81.516913 0.480458424,79.2304135 2.03573821,77.9651532 L6.11688807,74.6450323 C13.7677742,68.4228275 24.7608347,68.4654335 32.36253,74.7450635 L33.9887594,76.087977 L35.4830055,74.873108 C43.2826177,68.5278241 54.5307352,68.7094815 62.1187588,75.3019928 L63.2325396,76.268649 L64.9274886,74.8911576 C72.5883106,68.6591342 83.597291,68.7091633 91.2018395,75.0105178 L93.0759675,76.5637583 L94.9366508,75.0846149 Z M153.765017,31.3574174 C161.259458,25.4043848 171.868662,25.3649008 179.405459,31.2632604 L183.737808,34.6528854 C185.316867,35.8883402 185.595414,38.1699552 184.35996,39.7490152 C183.124505,41.3280751 180.84289,41.6066221 179.26383,40.3711673 L174.93111,36.9812517 C170.038135,33.1519685 163.146718,33.1776161 158.282016,37.041777 L154.115697,40.353777 C152.771446,41.4223844 150.86232,41.402917 149.540139,40.3071199 L145.397418,36.8737143 C140.461087,32.7833232 133.31052,32.7508282 128.336318,36.7973053 L124.273768,40.0989553 C122.905556,41.210907 120.936219,41.1790421 119.604697,40.0234074 L116.186703,37.0569117 C111.261315,32.7777117 103.955558,32.6597235 98.8924679,36.7787411 L95.0893402,39.8708036 C93.7471693,40.9620308 91.8214861,40.9546847 90.4876797,39.8532492 L86.5673143,36.6158756 C81.6329136,32.539652 74.4923626,32.5119772 69.5267267,36.5503595 L65.4460175,39.870122 C63.8907377,41.1353823 61.6042382,40.9002751 60.3389778,39.3449953 C59.0737175,37.7897155 59.3088248,35.503216 60.8641046,34.2379557 L64.9452544,30.9178348 C72.5961405,24.69563 83.589201,24.738236 91.1908964,31.017866 L92.8171257,32.3607795 L94.3113718,31.1459105 C102.110984,24.8006266 113.359102,24.982284 120.947125,31.5747953 L122.060906,32.5414515 L123.755855,31.1639601 C131.416677,24.9319367 142.425657,24.9819658 150.030206,31.2833203 L151.904334,32.8365608 L153.765017,31.3574174 Z M152.63597,53.7130546 C160.237606,47.0945455 171.514248,46.9137217 179.318625,53.2860019 L183.334479,56.5617769 C184.888095,57.8290788 185.120199,60.1158851 183.852898,61.6695018 C182.585596,63.2231185 180.298789,63.4552226 178.745173,62.1879208 L174.727985,58.9110574 C169.662305,54.7749255 162.338354,54.8923669 157.403074,59.1893615 L153.778948,62.343524 C152.43943,63.5093378 150.453147,63.5350086 149.083948,62.4042025 L145.086092,59.1024185 C140.17865,55.0489398 133.086888,54.9954855 128.120225,58.9735951 L124.942305,61.5196951 C123.60993,62.5871725 121.713785,62.5820188 120.387233,61.5073146 L116.448655,58.3164804 C111.512764,54.3160773 104.433183,54.3220813 99.5030704,58.3309153 L95.3185923,61.7334778 C93.9745395,62.8263796 92.0455554,62.8173675 90.711773,61.7119549 L86.5690521,58.2785493 C81.6327202,54.1881582 74.4821539,54.1556632 69.5079518,58.2021403 L65.445402,61.5037903 C64.0771894,62.615742 62.1078529,62.5838771 60.776331,61.4282424 L57.3583365,58.4617467 C52.4329489,54.1825467 45.1271913,54.0645585 40.0641016,58.1835761 L36.2609739,61.2756386 C34.918803,62.3668658 32.9931198,62.3595197 31.6593134,61.2580842 L27.738948,58.0207106 C22.8045472,53.944487 15.6639963,53.9168122 10.6983604,57.9551945 L6.61765111,61.274957 C5.06237133,62.5402173 2.77587181,62.3051101 1.5106115,60.7498303 C0.24535119,59.1945505 0.480458424,56.908051 2.03573821,55.6427907 L6.11688807,52.3226698 C13.7677742,46.100465 24.7608347,46.143071 32.36253,52.422701 L33.9887594,53.7656145 L35.4830055,52.5507455 C43.2826177,46.2054616 54.5307352,46.387119 62.1187588,52.9796303 L63.2325396,53.9462865 L64.9274886,52.5687951 C72.5883106,46.3367717 83.597291,46.3868008 91.2018395,52.6881553 L93.0502348,54.220069 L94.9224802,52.6976732 C102.517426,46.521977 113.415794,46.5127345 121.019645,52.6754456 L122.685123,54.0247309 L123.580904,53.3070457 C131.232886,47.1780959 142.150196,47.2603854 149.709687,53.5044202 L151.334158,54.846052 L152.63597,53.7130546 Z M35.4830055,96.9667355 C43.2826177,90.6214516 54.5307352,90.803109 62.1187588,97.3956203 L65.5353475,100.360895 C67.0495292,101.675061 67.2116739,103.96789 65.8975078,105.482072 C64.5833417,106.996254 62.2905127,107.158398 60.776331,105.844232 L57.3583365,102.877737 C52.4329489,98.5985367 45.1271913,98.4805485 40.0641016,102.599566 L36.2609739,105.691629 C34.918803,106.782856 32.9931198,106.77551 31.6593134,105.674074 L27.738948,102.436701 C22.8045472,98.360477 15.6639963,98.3328022 10.6983604,102.371185 L6.61765111,105.690947 C5.06237133,106.956207 2.77587181,106.7211 1.5106115,105.16582 C0.24535119,103.610541 0.480458424,101.324041 2.03573821,100.058781 L6.11688807,96.7386598 C13.7677742,90.516455 24.7608347,90.559061 32.36253,96.838691 L33.9887594,98.1816045 L35.4830055,96.9667355 Z M152.220346,9.51104672 C160.019959,3.16576281 171.268076,3.34742025 178.8561,9.93993157 L182.272688,12.9052066 C183.78687,14.2193727 183.949015,16.5122016 182.634849,18.0263833 C181.320683,19.5405651 179.027854,19.7027097 177.513672,18.3885436 L174.095677,15.4220479 C169.17029,11.1428479 161.864532,11.0248597 156.801442,15.1438773 L152.998315,18.2359398 C151.656144,19.3271671 149.730461,19.319821 148.396654,18.2183855 L144.476289,14.9810118 C139.541888,10.9047882 132.401337,10.8771134 127.435701,14.9154958 L123.354992,18.2352583 C121.799712,19.5005186 119.513213,19.2654113 118.247952,17.7101316 C116.982692,16.1548518 117.217799,13.8683523 118.773079,12.6030919 L122.854229,9.28297108 C130.505115,3.06076621 141.498176,3.10337228 149.099871,9.38300221 L150.7261,10.7259158 L152.220346,9.51104672 Z" id="Shape"></path>
                </g>
                <g id="Illustration-/-Blobs-and-dots" transform="translate(102.473118, 0.752212)">
                    <mask id="mask-2" fill="white">
                        <use xlink:href="#path-1"></use>
                    </mask>
                    <use id="Mask" fill="#E85257" fill-rule="evenodd" xlink:href="#path-1"></use>
                    <path d="M11.279104,40.0451413 C11.279104,42.3841281 9.37618257,44.2806282 7.02726393,44.2806282 C4.6801473,44.2806282 2.77632487,42.3841281 2.77632487,40.0451413 C2.77632487,37.7070521 4.6801473,35.810552 7.02726393,35.810552 C9.37618257,35.810552 11.279104,37.7070521 11.279104,40.0451413" id="Fill-339" fill="#FFFFFF" fill-rule="evenodd" mask="url(#mask-2)"></path>
                    <path d="M11.1832371,73.8272551 C11.1832371,76.1653444 9.28031569,78.0618444 6.93229806,78.0618444 C4.58518143,78.0618444 2.681359,76.1653444 2.681359,73.8272551 C2.681359,71.4882683 4.58518143,69.5917683 6.93229806,69.5917683 C9.28031569,69.5917683 11.1832371,71.4882683 11.1832371,73.8272551" id="Fill-342" fill="#FFFFFF" fill-rule="evenodd" mask="url(#mask-2)"></path>
                    <path d="M28.1869934,56.8888979 C28.1869934,59.2269872 26.2840719,61.1234872 23.9360543,61.1234872 C21.5880367,61.1234872 19.6842142,59.2269872 19.6842142,56.8888979 C19.6842142,54.5499111 21.5880367,52.6534111 23.9360543,52.6534111 C26.2840719,52.6534111 28.1869934,54.5499111 28.1869934,56.8888979" id="Fill-345" fill="#FFFFFF" fill-rule="evenodd" mask="url(#mask-2)"></path>
                    <path d="M11.0872801,107.608561 C11.0872801,109.94665 9.18435872,111.84315 6.83634108,111.84315 C4.48922445,111.84315 2.58540202,109.94665 2.58540202,107.608561 C2.58540202,105.269574 4.48922445,103.373074 6.83634108,103.373074 C9.18435872,103.373074 11.0872801,105.269574 11.0872801,107.608561" id="Fill-348" fill="#FFFFFF" fill-rule="evenodd" mask="url(#mask-2)"></path>
                    <path d="M28.0911265,90.6702039 C28.0911265,93.0082931 26.1882051,94.9047932 23.8401874,94.9047932 C21.4930708,94.9047932 19.5892484,93.0082931 19.5892484,90.6702039 C19.5892484,88.3321146 21.4930708,86.4356146 23.8401874,86.4356146 C26.1882051,86.4356146 28.0911265,88.3321146 28.0911265,90.6702039" id="Fill-351" fill="#FFFFFF" fill-rule="evenodd" mask="url(#mask-2)"></path>
                    <path d="M45.0948827,73.7317569 C45.0948827,76.0698462 43.1919613,77.9663462 40.8439437,77.9663462 C38.4968271,77.9663462 36.5930046,76.0698462 36.5930046,73.7317569 C36.5930046,71.3936677 38.4968271,69.4971676 40.8439437,69.4971676 C43.1919613,69.4971676 45.0948827,71.3936677 45.0948827,73.7317569" id="Fill-354" fill="#FFFFFF" fill-rule="evenodd" mask="url(#mask-2)"></path>
                    <path d="M27.9960705,124.45151 C27.9960705,126.789599 26.0931491,128.686099 23.7442305,128.686099 C21.3971138,128.686099 19.4932914,126.789599 19.4932914,124.45151 C19.4932914,122.113421 21.3971138,120.216921 23.7442305,120.216921 C26.0931491,120.216921 27.9960705,122.113421 27.9960705,124.45151" id="Fill-357" fill="#FFFFFF" fill-rule="evenodd" mask="url(#mask-2)"></path>
                    <path d="M44.9990159,107.513063 C44.9990159,109.851152 43.0960944,111.747652 40.7480768,111.747652 C38.4009602,111.747652 36.4971377,109.851152 36.4971377,107.513063 C36.4971377,105.174974 38.4009602,103.278474 40.7480768,103.278474 C43.0960944,103.278474 44.9990159,105.174974 44.9990159,107.513063" id="Fill-360" fill="#FFFFFF" fill-rule="evenodd" mask="url(#mask-2)"></path>
                    <path d="M62.0028622,90.574616 C62.0028622,92.9127052 60.0999408,94.8092053 57.7519232,94.8092053 C55.4048065,94.8092053 53.5009841,92.9127052 53.5009841,90.574616 C53.5009841,88.2365267 55.4048065,86.3400267 57.7519232,86.3400267 C60.0999408,86.3400267 62.0028622,88.2365267 62.0028622,90.574616" id="Fill-363" fill="#FFFFFF" fill-rule="evenodd" mask="url(#mask-2)"></path>
                    <path d="M11.1832371,141.199679 C11.1832371,143.537768 9.28031569,145.434268 6.93229806,145.434268 C4.58518143,145.434268 2.681359,143.537768 2.681359,141.199679 C2.681359,138.860692 4.58518143,136.964192 6.93229806,136.964192 C9.28031569,136.964192 11.1832371,138.860692 11.1832371,141.199679" id="Fill-366" fill="#FFFFFF" fill-rule="evenodd" mask="url(#mask-2)"></path>
                    <path d="M44.9039599,141.294369 C44.9039599,143.632458 43.0010385,145.528958 40.6530208,145.528958 C38.3050032,145.528958 36.4011808,143.632458 36.4011808,141.294369 C36.4011808,138.95628 38.3050032,137.05978 40.6530208,137.05978 C43.0010385,137.05978 44.9039599,138.95628 44.9039599,141.294369" id="Fill-369" fill="#FFFFFF" fill-rule="evenodd" mask="url(#mask-2)"></path>
                    <path d="M61.9078062,124.355922 C61.9078062,126.694011 60.0048848,128.590511 57.6559662,128.590511 C55.3088496,128.590511 53.4050271,126.694011 53.4050271,124.355922 C53.4050271,122.017833 55.3088496,120.121333 57.6559662,120.121333 C60.0048848,120.121333 61.9078062,122.017833 61.9078062,124.355922" id="Fill-372" fill="#FFFFFF" fill-rule="evenodd" mask="url(#mask-2)"></path>
                    <path d="M78.9116526,107.417565 C78.9116526,109.756552 77.0087312,111.653052 74.6598125,111.653052 C72.3126959,111.653052 70.4088735,109.756552 70.4088735,107.417565 C70.4088735,105.079475 72.3126959,103.182975 74.6598125,103.182975 C77.0087312,103.182975 78.9116526,105.079475 78.9116526,107.417565" id="Fill-375" fill="#FFFFFF" fill-rule="evenodd" mask="url(#mask-2)"></path>
                    <path d="M11.0872801,174.980984 C11.0872801,177.319074 9.18435872,179.215574 6.83634108,179.215574 C4.48922445,179.215574 2.58540202,177.319074 2.58540202,174.980984 C2.58540202,172.641998 4.48922445,170.745498 6.83634108,170.745498 C9.18435872,170.745498 11.0872801,172.641998 11.0872801,174.980984" id="Fill-378" fill="#FFFFFF" fill-rule="evenodd" mask="url(#mask-2)"></path>
                    <path d="M28.0911265,158.042627 C28.0911265,160.380717 26.1882051,162.277217 23.8401874,162.277217 C21.4930708,162.277217 19.5892484,160.380717 19.5892484,158.042627 C19.5892484,155.704538 21.4930708,153.808038 23.8401874,153.808038 C26.1882051,153.808038 28.0911265,155.704538 28.0911265,158.042627" id="Fill-381" fill="#FFFFFF" fill-rule="evenodd" mask="url(#mask-2)"></path>
                    <path d="M61.8119394,158.137228 C61.8119394,160.476215 59.9090179,162.372715 57.5610003,162.372715 C55.2138837,162.372715 53.3100612,160.476215 53.3100612,158.137228 C53.3100612,155.799139 55.2138837,153.902639 57.5610003,153.902639 C59.9090179,153.902639 61.8119394,155.799139 61.8119394,158.137228" id="Fill-384" fill="#FFFFFF" fill-rule="evenodd" mask="url(#mask-2)"></path>
                    <path d="M78.8156956,141.199679 C78.8156956,143.537768 76.9127742,145.434268 74.5647566,145.434268 C72.2176399,145.434268 70.3129165,143.537768 70.3129165,141.199679 C70.3129165,138.860692 72.2176399,136.964192 74.5647566,136.964192 C76.9127742,136.964192 78.8156956,138.860692 78.8156956,141.199679" id="Fill-387" fill="#FFFFFF" fill-rule="evenodd" mask="url(#mask-2)"></path>
                    <path d="M95.819542,124.261321 C95.819542,126.599411 93.9166205,128.495911 91.5686029,128.495911 C89.2205853,128.495911 87.3167628,126.599411 87.3167628,124.261321 C87.3167628,121.922335 89.2205853,120.025834 91.5686029,120.025834 C93.9166205,120.025834 95.819542,121.922335 95.819542,124.261321" id="Fill-390" fill="#FFFFFF" fill-rule="evenodd" mask="url(#mask-2)"></path>
                    <path d="M27.9960705,191.823844 C27.9960705,194.161933 26.0931491,196.058433 23.7442305,196.058433 C21.3971138,196.058433 19.4932914,194.161933 19.4932914,191.823844 C19.4932914,189.485754 21.3971138,187.589254 23.7442305,187.589254 C26.0931491,187.589254 27.9960705,189.485754 27.9960705,191.823844" id="Fill-393" fill="#FFFFFF" fill-rule="evenodd" mask="url(#mask-2)"></path>
                    <path d="M44.9990159,174.885486 C44.9990159,177.223576 43.0960944,179.120076 40.7480768,179.120076 C38.4009602,179.120076 36.4971377,177.223576 36.4971377,174.885486 C36.4971377,172.547397 38.4009602,170.650897 40.7480768,170.650897 C43.0960944,170.650897 44.9990159,172.547397 44.9990159,174.885486" id="Fill-396" fill="#FFFFFF" fill-rule="evenodd" mask="url(#mask-2)"></path>
                    <path d="M11.1832371,208.571204 C11.1832371,210.910191 9.28031569,212.806691 6.93229806,212.806691 C4.58518143,212.806691 2.681359,210.910191 2.681359,208.571204 C2.681359,206.233115 4.58518143,204.336615 6.93229806,204.336615 C9.28031569,204.336615 11.1832371,206.233115 11.1832371,208.571204" id="Fill-399" fill="#FFFFFF" fill-rule="evenodd" mask="url(#mask-2)"></path>
                    <path d="M78.7198288,174.980984 C78.7198288,177.319074 76.8169073,179.215574 74.4688897,179.215574 C72.1217731,179.215574 70.2179506,177.319074 70.2179506,174.980984 C70.2179506,172.641998 72.1217731,170.745498 74.4688897,170.745498 C76.8169073,170.745498 78.7198288,172.641998 78.7198288,174.980984" id="Fill-402" fill="#FFFFFF" fill-rule="evenodd" mask="url(#mask-2)"></path>
                    <path d="M95.7236751,158.042627 C95.7236751,160.380717 93.8207537,162.277217 91.472736,162.277217 C89.1256194,162.277217 87.221797,160.380717 87.221797,158.042627 C87.221797,155.704538 89.1256194,153.808038 91.472736,153.808038 C93.8207537,153.808038 95.7236751,155.704538 95.7236751,158.042627" id="Fill-405" fill="#FFFFFF" fill-rule="evenodd" mask="url(#mask-2)"></path>
                    <path d="M112.727431,141.10418 C112.727431,143.44227 110.82451,145.33877 108.476492,145.33877 C106.129376,145.33877 104.225553,143.44227 104.225553,141.10418 C104.225553,138.766091 106.129376,136.869591 108.476492,136.869591 C110.82451,136.869591 112.727431,138.766091 112.727431,141.10418" id="Fill-408" fill="#FFFFFF" fill-rule="evenodd" mask="url(#mask-2)"></path>
                    <path d="M44.9039599,208.666792 C44.9039599,211.004882 43.0010385,212.901382 40.6530208,212.901382 C38.3050032,212.901382 36.4011808,211.004882 36.4011808,208.666792 C36.4011808,206.328703 38.3050032,204.432203 40.6530208,204.432203 C43.0010385,204.432203 44.9039599,206.328703 44.9039599,208.666792" id="Fill-411" fill="#FFFFFF" fill-rule="evenodd" mask="url(#mask-2)"></path>
                    <path d="M61.9078062,191.728345 C61.9078062,194.066435 60.0048848,195.962935 57.6559662,195.962935 C55.3088496,195.962935 53.4050271,194.066435 53.4050271,191.728345 C53.4050271,189.390256 55.3088496,187.493756 57.6559662,187.493756 C60.0048848,187.493756 61.9078062,189.390256 61.9078062,191.728345" id="Fill-414" fill="#FFFFFF" fill-rule="evenodd" mask="url(#mask-2)"></path>
                    <path d="M11.0872801,242.353408 C11.0872801,244.691497 9.18435872,246.587997 6.83634108,246.587997 C4.48922445,246.587997 2.58540202,244.691497 2.58540202,242.353408 C2.58540202,240.014421 4.48922445,238.117921 6.83634108,238.117921 C9.18435872,238.117921 11.0872801,240.014421 11.0872801,242.353408" id="Fill-417" fill="#FFFFFF" fill-rule="evenodd" mask="url(#mask-2)"></path>
                    <path d="M29.4376029,223.706133 C29.4376029,226.044222 27.5396484,227.940722 25.1977595,227.940722 C22.8567692,227.940722 20.9579161,226.044222 20.9579161,223.706133 C20.9579161,221.368044 22.8567692,219.471544 25.1977595,219.471544 C27.5396484,219.471544 29.4376029,221.368044 29.4376029,223.706133" id="Fill-420" fill="#FFFFFF" fill-rule="evenodd" mask="url(#mask-2)"></path>
                    <path d="M111.747579,173.389813 C111.747579,175.411944 110.108139,177.05216 108.085231,177.05216 C106.0631,177.05216 104.422884,175.411944 104.422884,173.389813 C104.422884,171.367681 106.0631,169.727465 108.085231,169.727465 C110.108139,169.727465 111.747579,171.367681 111.747579,173.389813" id="Fill-426" fill="#FFFFFF" fill-rule="evenodd" mask="url(#mask-2)"></path>
                    <path d="M128.941076,158.103821 C128.941076,160.600279 127.119476,162.625238 124.871801,162.625238 C122.624989,162.625238 120.802526,160.600279 120.802526,158.103821 C120.802526,155.607362 122.624989,153.582404 124.871801,153.582404 C127.119476,153.582404 128.941076,155.607362 128.941076,158.103821" id="Fill-429" fill="#FFFFFF" fill-rule="evenodd" mask="url(#mask-2)"></path>
                    <path d="M59.684517,225.452874 C59.684517,227.475782 58.045077,229.115998 56.0221695,229.115998 C54.0000383,229.115998 52.359822,227.475782 52.359822,225.452874 C52.359822,223.430743 54.0000383,221.790527 56.0221695,221.790527 C58.045077,221.790527 59.684517,223.430743 59.684517,225.452874" id="Fill-432" fill="#FFFFFF" fill-rule="evenodd" mask="url(#mask-2)"></path>
                    <path d="M77.611407,209.078406 C77.611407,211.101314 75.971967,212.74153 73.9490595,212.74153 C71.9269283,212.74153 70.2859358,211.101314 70.2859358,209.078406 C70.2859358,207.056275 71.9269283,205.416059 73.9490595,205.416059 C75.971967,205.416059 77.611407,207.056275 77.611407,209.078406" id="Fill-435" fill="#FFFFFF" fill-rule="evenodd" mask="url(#mask-2)"></path>
                </g>
                <g id="Illustration-/-Saw" transform="translate(0.000000, 242.500000)" fill="#FAD145">
                    <path d="M41.46544,45.7999387 L35.909296,38.0182532 L53.8724156,25.1925383 C55.5441487,23.9989164 57.791496,24.0065842 59.4550451,25.2115858 L73.9921408,35.7416164 L88.8810678,25.1115583 C90.5527939,23.9180172 92.8000745,23.9257187 94.463581,25.1306896 L110.375643,36.6566884 L125.816653,25.6316991 C127.48837,24.4380815 129.735697,24.4457326 131.399248,25.6507052 L146.486278,36.5788109 L161.652059,25.7514627 C163.323748,24.5579891 165.570941,24.5656824 167.234419,25.7705741 L182.871277,37.0966735 L199.142046,25.4799379 C200.813761,24.2863947 203.061031,24.2940817 204.724541,25.4990333 L220.911271,37.2237731 L236.905944,25.8042376 C238.577637,24.6107177 240.824868,24.6183919 242.488371,25.8233013 L258.125302,37.1494541 L274.396095,25.5333178 C276.067807,24.3398397 278.315027,24.3475574 279.978502,25.5524895 L298.674292,39.0947167 L293.065226,46.8383422 L277.153745,35.3129197 L260.883001,46.9290207 C259.211313,48.1224815 256.964131,48.1147829 255.300659,46.9098961 L239.663793,35.5837899 L223.669078,47.0033558 C221.997364,48.1968904 219.7501,48.1891998 218.086595,46.9842515 L201.899875,35.2595186 L185.629148,46.8762238 C183.957454,48.0697522 181.710215,48.0620816 180.046708,46.8571689 L164.409791,35.5310261 L149.243977,46.3583979 C147.572272,47.5518829 145.325055,47.544177 143.661574,46.3392551 L128.574688,35.4112541 L113.133643,46.4362687 C111.461909,47.6298985 109.214555,47.6222338 107.551001,46.4172288 L91.6388424,34.8911601 L76.7499157,45.5212179 C75.0781897,46.7147589 72.8309094,46.7070576 71.167403,45.5020869 L56.6303956,34.9721202 L41.46544,45.7999387 Z M21.6128486,12.6805698 L6.44789304,23.5083882 L0.891749033,15.7267028 L18.8548686,2.90098787 C20.5266017,1.707366 22.773949,1.71503379 24.4374982,2.92003542 L38.9745938,13.450066 L53.8635208,2.82000788 C55.5352107,1.62649269 57.782435,1.63416548 59.4459359,2.83906814 L75.3580986,14.3645248 L90.7992081,3.34007576 C92.4708807,2.14655599 94.7180907,2.15420639 96.3815982,3.35908044 L111.468674,14.2866089 L126.633793,3.45989285 C128.305453,2.26645771 130.552588,2.2741371 132.216052,3.47896972 L147.853618,14.8051243 L164.123681,3.18843892 C165.795373,1.99486496 168.042643,2.00251015 169.706176,3.20743051 L185.893669,14.932262 L201.888397,3.51268715 C203.560117,2.31914763 205.807391,2.32684359 207.470898,3.53180487 L223.10712,14.8579025 L239.37862,3.24171593 L244.934223,11.0237876 L225.864636,24.6375216 C224.192925,25.8309523 221.945741,25.8232113 220.282292,24.6182917 L204.646189,13.29228 L188.651531,24.7118053 C186.979844,25.9053209 184.732622,25.8976515 183.06912,24.6927535 L166.881691,12.9679681 L150.611673,24.5846219 C148.940002,25.7781805 146.692765,25.7705523 145.029236,24.5656724 L129.391535,13.2394203 L114.226403,24.0661446 C112.554738,25.2595837 110.307594,25.2518999 108.64413,24.0470567 L93.5571421,13.119592 L78.1159937,24.1440688 C76.4443022,25.3376021 74.197063,25.3299368 72.5335525,24.1250272 L56.6213702,12.5995562 L41.7323688,23.2296675 C40.0606428,24.4232085 37.8133624,24.4155071 36.149856,23.2105365 L21.6128486,12.6805698 Z" id="Shape"></path>
                </g>
            </g>
            <g id="Illustration-/-Logo" transform="translate(205.248945, 105.000000)" fill="#FFFFFF">
                <path d="M52.0809031,41.8291329 C52.232554,37.8300638 52.3669427,33.704061 52.3826729,31.0207101 C52.4160376,28.3247041 53.8507223,25.9282544 56.2863498,24.8964497 C58.0213173,24.1642012 60.2567562,24.0643491 63.1261255,25.5288462 C63.8601502,25.8616864 66.8963434,27.6590237 66.5626958,34.4822485 C66.5626958,34.7152367 65.4950235,54.9186391 65.7619416,58.7130178 C65.8286711,59.112426 66.0622244,59.9112426 66.395872,60.1775148 C66.4292368,60.2107988 66.5626958,60.3106509 66.8963434,60.2773669 L67.1632615,60.2440828 L67.229991,60.2773669 C67.5970033,60.1442308 69.8991718,59.1789941 73.1355535,51.2241124 L74.1364963,48.1952663 C75.00398,45.1331361 75.4043571,34.2159763 75.5378162,28.8239645 C75.6045457,25.8949704 77.4062427,23.3986686 80.1755178,22.566568 C82.0439443,22.0007396 84.3461128,22.0673077 87.0486583,23.4652367 C87.1821173,23.5318047 91.6196304,25.6952663 90.418499,32.5184911 L89.6844743,40.9393491 L88.8837201,50.591716 C88.7168963,54.2196746 89.0171791,58.1471893 90.0848514,58.3136095 C91.9199132,58.3801775 91.4194418,57.647929 95.3231187,54.4193787 L95.6567663,51.5569527 L97.0247215,42.0044379 C97.3917338,38.4097633 97.3250043,35.3143491 97.4918281,33.1841716 C97.8922052,28.9238166 97.7587462,25.1294379 99.2601604,23.7980769 C100.761575,22.433432 103.497485,22.7995562 106.733867,25.4955621 C108.468834,26.9267751 109.736695,28.8239645 110.537449,31.1538462 C112.272417,28.158284 115.175151,24.2973373 119.412475,22.8328402 C122.448668,21.8010355 125.718415,22.1338757 129.054891,23.897929 C129.18835,23.931213 131.390424,25.3957101 132.491461,27.0266272 C133.292215,28.191568 135.527654,31.8860947 134.560076,42.237426 C134.359888,44.3676036 133.826052,48.8942308 133.358945,53.387574 C134.226429,52.8217456 136.328409,49.5931953 139.197778,45.3994083 C141.933688,31.3535503 153.44453,27.8920118 153.945002,27.7588757 C161.919179,25.295858 168.125025,25.6952663 172.395714,28.9571006 C177.934264,33.1841716 177.900899,40.5732249 177.76744,41.0724852 L177.76744,41.1390533 C177.266969,47.9622781 172.595902,52.6553254 164.187983,54.7189349 C159.68374,55.8173077 155.312957,55.8838757 153.210977,55.8173077 C152.977424,59.8113905 155.946887,62.6738166 156.080346,62.8069527 C161.118425,67.2004438 169.192697,60.3772189 169.259426,60.3106509 C171.361406,58.3136095 172.195525,57.8476331 172.395714,57.7477811 L172.495808,57.714497 C173.763669,57.2152367 174.631153,57.8143491 174.9648,58.0806213 C176.43285,59.3121302 176.132567,62.1745562 175.832284,63.7721893 C174.898071,68.6316568 171.227947,71.8934911 165.255655,73.2914201 C162.286192,73.9903846 159.450187,74.0236686 157.915408,73.9903846 C157.214748,73.9571006 156.814371,73.9238166 156.747642,73.9238166 C150.675255,73.125 146.137648,70.4955621 142.934631,66.5347633 C139.731614,62.5406805 139.63152,60.5769231 139.63152,60.5769231 C135.894667,64.8705621 133.559133,66.4016272 128.454325,68.1323964 C128.42096,68.1656805 128.42096,68.1656805 128.387596,68.1656805 C128.320866,68.1989645 128.220772,68.2322485 128.154042,68.2655325 C126.38571,68.897929 124.116906,68.864645 121.347631,67.2337278 C120.646971,66.8343195 117.744237,64.8705621 118.444897,58.1139053 C118.478262,57.8809172 120.747066,39.2751479 120.713701,35.4807692 C120.713701,35.0813609 120.513512,34.2825444 120.179865,33.9829882 C120.1465,33.9497041 120.013041,33.8498521 119.679393,33.8498521 L119.412475,33.8498521 L119.345746,33.816568 C118.945369,33.8831361 116.576471,34.7152367 112.872982,42.4371302 L111.671851,45.3994083 C110.637543,48.3616864 110.103707,57.5813609 109.636601,62.9400888 C109.403047,65.8357988 107.434527,68.1989645 104.631887,68.864645 C102.696731,69.2973373 100.394562,69.1309172 97.7587462,67.566568 C97.6920167,67.533284 96.4908853,66.8676036 95.5900368,65.3032544 C92.1534666,67.6997041 91.6863599,69.7965976 88.7836258,70.0961538 C88.7836258,70.0961538 88.6835315,70.1294379 88.483343,70.1294379 C87.3823059,70.2292899 83.612088,70.329142 80.2422473,67.7995562 C78.4405503,66.4681953 77.0725951,64.637574 76.1383819,62.3409763 C74.6369677,65.4363905 71.9344221,69.4970414 67.8305567,71.1945266 C64.861093,72.4260355 61.6247113,72.2596154 58.1881411,70.6952663 C58.054682,70.6286982 55.7525136,69.3306213 54.584747,67.7329882 C53.9001713,66.8315349 52.1368572,64.2486314 51.7110424,57.5738868 C49.8889394,59.2556166 47.4516644,60.705815 44.5389275,62.1217067 C44.3419976,72.0885889 43.4037336,81.759531 41.5057612,88.7019231 C34.0987845,115.761834 -8.40791947,119.323225 1.86842655,83.5428994 C4.83789017,73.2581361 15.6814371,62.1745562 32.1969932,53.9534024 C32.497276,48.3949704 32.2637227,33.0843195 29.8280953,28.7573964 C25.1570289,20.4363905 37.6020843,13.5798817 40.5048184,21.4681953 C42.4988363,26.8237143 43.9287317,37.5957731 44.4054933,49.4509226 C47.7482221,47.7141992 50.6321596,45.390945 52.0809031,41.8291329 Z M25.7909593,1.06508876 C28.193222,-0.299556213 32.6640998,-0.532544379 35.9338463,3.36168639 C38.5362976,6.49038462 32.8309236,10.2181953 32.7641941,10.2514793 C31.4629685,10.9504438 28.4267753,12.8476331 26.6918078,12.7810651 C24.723287,12.714497 22.087471,12.2152367 21.119893,9.18639053 C20.285774,6.55695266 23.6889795,2.26331361 25.7909593,1.06508876 Z M162.786663,41.5384615 C163.854335,39.7078402 164.187983,38.2100592 163.754241,37.2781065 C163.453958,36.612426 162.753298,36.3794379 162.686569,36.3461538 C161.185155,35.9800296 159.883929,36.1464497 158.682798,36.9119822 C155.813428,38.7426036 154.445473,43.3357988 153.911637,45.7655325 C160.150847,46.0318047 162.753298,41.5717456 162.786663,41.5384615 Z M28.4935049,89.4008876 C31.1960504,84.1420118 32.6974646,75.6213018 33.064477,67.2004438 C23.6222499,71.9267751 13.5794572,80.5140533 13.1790801,90.2329882 C12.8120678,98.3210059 23.6222499,98.8202663 28.4935049,89.4008876 Z M161.185155,85.6397929 C167.824742,87.6701183 168.825685,90.4659763 167.824742,93.8609467 C166.723705,97.5887574 161.885815,99.0865385 158.215691,98.1878698 C86.3813631,80.3143491 53.5170747,99.9186391 51.4484596,92.6294379 C50.4475168,89.1678994 51.7821072,87.237426 57.9879525,85.772929 C120.446783,70.8616864 158.34915,84.7744083 161.185155,85.6397929 Z" id="Shape"></path>
            </g>
        </g>
    </g>
</svg>