<svg xmlns="http://www.w3.org/2000/svg" width="43.998" height="67" viewBox="0 0 43.998 67">
  <g id="Logo" transform="translate(-0.001 0)">
    <path id="Color" d="M9.17,67a1.957,1.957,0,0,1-.657-.113L8.5,66.882a2.43,2.43,0,0,1-1.471-3.073L14.484,40.48,1.8,37.113c-.075-.02-.143-.042-.207-.066a2.444,2.444,0,0,1-1.55-2.767L6.6,1.947A2.436,2.436,0,0,1,8.981,0c.049,0,.1,0,.148,0L34.765,1.557a2.424,2.424,0,0,1,1.032.3l-.012-.02-.013-.022.057.06a2.433,2.433,0,0,1,.61.5l.133.15.006.006c.2.232.414.471.632.7l6.218,6.405a1.759,1.759,0,0,1,.114,2.472L32.89,30.26l2.73.692c.069.017.136.036.206.059l.058.021.02.007.01,0a2.459,2.459,0,0,1,1.534,1.666l.05.14c.193.538.393,1.094.605,1.636l1.548,3.949c.137.348.292.7.429,1a1.914,1.914,0,0,1-.769,2.632L10.491,66.516A2.068,2.068,0,0,1,9.17,67ZM9.279,2.839,2.82,35.619,17.746,39.7,9.617,65.865,34.973,34.151l-9.99-2.608,9.56-27.13Z" transform="translate(0.001 0)" fill="#172328"/>
  </g>
</svg>
