<?xml version="1.0" encoding="UTF-8"?>
<svg width="20px" height="31px" viewBox="0 0 20 31" version="1.1" xmlns="http://www.w3.org/2000/svg" xmlns:xlink="http://www.w3.org/1999/xlink">
    <!-- Generator: Sketch 54.1 (76490) - https://sketchapp.com -->
    <title>Slice 1</title>
    <desc>Created with Sketch.</desc>
    <g id="Page-1" stroke="none" stroke-width="1" fill="none" fill-rule="evenodd">
        <g id="Illustration-/-Lightning" fill="#172328">
            <path d="M11.3565184,14.5945584 L15.8974359,15.8014142 L4.37197607,30.4745763 L8.06701156,18.3675147 L1.28205128,16.4807654 L4.21818874,1.31355932 L15.7016831,2.04182687 L11.3565184,14.5945584 Z M17.8692501,19.4638538 C18.2891564,19.1644058 18.4552916,18.7869129 18.2183231,18.2462161 C18.1511129,18.0926941 18.0837977,17.9392792 18.0235185,17.7828152 L17.3196491,15.955369 C17.2149482,15.6836298 17.1189637,15.4086276 17.0219814,15.1338928 C16.8516981,14.6517697 16.6082186,14.4783487 16.3249381,14.3630735 C16.3204224,14.3612548 16.3158017,14.3595431 16.3112335,14.3578848 C16.3025172,14.3546753 16.2937483,14.3515728 16.2849795,14.3485237 C16.2538948,14.3379323 16.2227051,14.3288387 16.1914628,14.3211893 L14.9505944,14.0006119 L19.7920921,5.60071441 C20.0413475,5.24820233 20.114281,4.83781194 19.7404768,4.45705609 L16.9139725,1.49338699 C16.7927316,1.36618309 16.6789994,1.23191824 16.5636393,1.09909768 C16.4837222,1.00693102 16.3898379,0.929474645 16.2865022,0.868814751 L16.2606158,0.840570991 C16.2641864,0.846669076 16.2680719,0.85330208 16.271905,0.859828101 C16.2208148,0.830888945 16.1674667,0.806068671 16.1123333,0.78568823 C16.0138283,0.749313691 15.909705,0.727061031 15.8026413,0.720428027 L4.14991421,0.00208436282 C3.60078582,-0.0318295461 3.11099144,0.351547402 3.00161733,0.900856441 L0.02220988,15.8613836 C-0.0873217533,16.4114415 0.21785459,16.9536361 0.726446824,17.1416069 C0.757216497,17.1529472 0.788668773,17.1630572 0.820803653,17.1717229 L6.58402635,18.7295695 L3.19495169,29.5236607 C3.04693171,29.9951924 3.20387804,30.5191462 3.60057578,30.8051143 C3.68380092,30.8650253 3.77243438,30.9116168 3.86353572,30.9453167 C3.86574105,30.9461726 3.86799889,30.946975 3.87020423,30.9477774 C4.17706083,31.0588802 4.5193078,30.9885917 4.76935077,30.7760682 L17.8692501,19.4638538 Z" id="Color"></path>
        </g>
    </g>
</svg>