<?xml version="1.0" encoding="UTF-8"?>
<svg width="30px" height="30px" viewBox="0 0 30 30" version="1.1" xmlns="http://www.w3.org/2000/svg" xmlns:xlink="http://www.w3.org/1999/xlink">
    <!-- Generator: Sketch 53.2 (72643) - https://sketchapp.com -->
    <title>Icons / Phone</title>
    <desc>Created with Sketch.</desc>
    <defs>
        <path d="M18.5052632,5.4 C20.1771789,5.4 21.5368421,6.75966316 21.5368421,8.43157895 L21.5368421,21.5684211 C21.5368421,23.2403368 20.1771789,24.6 18.5052632,24.6 L11.4315789,24.6 C9.75966316,24.6 8.4,23.2403368 8.4,21.5684211 L8.4,8.43157895 C8.4,6.75966316 9.75966316,5.4 11.4315789,5.4 L18.5052632,5.4 Z M18.5052632,7.42105263 L11.4315789,7.42105263 C10.8737684,7.42105263 10.4210526,7.87376842 10.4210526,8.43157895 L10.4210526,21.5684211 C10.4210526,22.1262316 10.8737684,22.5789474 11.4315789,22.5789474 L18.5052632,22.5789474 C19.0630737,22.5789474 19.5157895,22.1262316 19.5157895,21.5684211 L19.5157895,8.43157895 C19.5157895,7.87376842 19.0630737,7.42105263 18.5052632,7.42105263 Z M14.9684211,19.5473684 C15.5262316,19.5473684 15.9789474,20.0000842 15.9789474,20.5578947 C15.9789474,21.1157053 15.5262316,21.5684211 14.9684211,21.5684211 C14.4106105,21.5684211 13.9578947,21.1157053 13.9578947,20.5578947 C13.9578947,20.0000842 14.4106105,19.5473684 14.9684211,19.5473684 Z M15.9789474,9.94736842 L13.9578947,9.94736842 C13.6789895,9.94736842 13.4526316,9.72101053 13.4526316,9.44210526 L13.4526316,8.93684211 C13.4526316,8.65793684 13.6789895,8.43157895 13.9578947,8.43157895 L15.9789474,8.43157895 C16.2578526,8.43157895 16.4842105,8.65793684 16.4842105,8.93684211 L16.4842105,9.44210526 C16.4842105,9.72101053 16.2578526,9.94736842 15.9789474,9.94736842 Z" id="path-1"></path>
    </defs>
    <g id="Icons-/-Phone" stroke="none" stroke-width="1">
        <mask id="mask-2" fill="white">
            <use xlink:href="#path-1"></use>
        </mask>
        <use id="Color" xlink:href="#path-1"></use>
    </g>
</svg>
