<svg height="32" viewBox="0 0 32 32" width="32" xmlns="http://www.w3.org/2000/svg"><g fill-rule="evenodd" transform="translate(0 .75)"><path d="m32.4999994 26.56v-1.2h-16.0000524v1.2z"/><path d="m9.27219512 26.56v-1.2h-9.27219512v1.2z"/><path d="m0 14.8v1.2h19.3170732v-1.2z"/><path d="m26.4679572 14.8v1.2h5.6335062v-1.2z"/><path d="m0 4.24v1.2h6.18146341v-1.2z"/><path d="m13.5 4.24v1.2h18.6014634v-1.2z"/><path d="m9.62341463 7.97894737c-1.80457416 0-3.26341463-1.43092008-3.26341463-3.18947369 0-1.7585536 1.45884047-3.18947368 3.26341463-3.18947368 1.80457417 0 3.26341467 1.43092008 3.26341467 3.18947368 0 1.75855361-1.4588405 3.18947369-3.26341467 3.18947369zm0-7.57894737c-2.46218096 0-4.46341463 1.96293255-4.46341463 4.38947368 0 2.42654114 2.00123367 4.38947369 4.46341463 4.38947369 2.46218097 0 4.46341467-1.96293255 4.46341467-4.38947369 0-2.42654113-2.0012337-4.38947368-4.46341467-4.38947368z"/><path d="m23.0634146 18.5389474c-1.8045741 0-3.2634146-1.4309201-3.2634146-3.1894737s1.4588405-3.1894737 3.2634146-3.1894737c1.8045742 0 3.2634147 1.4309201 3.2634147 3.1894737s-1.4588405 3.1894737-3.2634147 3.1894737zm0-7.5789474c-2.4621809 0-4.4634146 1.9629326-4.4634146 4.3894737s2.0012337 4.3894737 4.4634146 4.3894737c2.462181 0 4.4634147-1.9629326 4.4634147-4.3894737s-2.0012337-4.3894737-4.4634147-4.3894737z"/><path d="m12.5034146 29.0989474c-1.8045741 0-3.2634146-1.4309201-3.2634146-3.1894737s1.4588405-3.1894737 3.2634146-3.1894737c1.8045742 0 3.2634147 1.4309201 3.2634147 3.1894737s-1.4588405 3.1894737-3.2634147 3.1894737zm0-7.5789474c-2.4621809 0-4.4634146 1.9629326-4.4634146 4.3894737s2.0012337 4.3894737 4.4634146 4.3894737c2.462181 0 4.4634147-1.9629326 4.4634147-4.3894737s-2.0012337-4.3894737-4.4634147-4.3894737z"/></g></svg>