<?xml version="1.0" encoding="UTF-8"?>
<svg width="30px" height="30px" viewBox="0 0 30 30" version="1.1" xmlns="http://www.w3.org/2000/svg" xmlns:xlink="http://www.w3.org/1999/xlink">
    <!-- Generator: Sketch 52.6 (67491) - http://www.bohemiancoding.com/sketch -->
    <title>questionmark</title>
    <desc>Created with Sketch.</desc>
    <g id="Page-1" stroke="none" stroke-width="1">
        <g id="questionmark">
            <path d="M15,30 C6.71572875,30 1.01453063e-15,23.2842712 0,15 C-1.01453063e-15,6.71572875 6.71572875,1.52179594e-15 15,0 C23.2842712,-1.52179594e-15 30,6.71572875 30,15 C29.9909064,23.2805016 23.2805016,29.9909064 15,30 Z M15,3 C8.372583,3 3,8.372583 3,15 C3,21.627417 8.372583,27 15,27 C21.627417,27 27,21.627417 27,15 C26.9925602,8.37566713 21.6243329,3.00743983 15,3 Z M16.5,24 L13.5,24 L13.5,21 L16.5,21 L16.5,24 Z M16.5,19.5 L13.5,19.5 C13.4525932,17.5464991 14.4692073,15.7211884 16.155,14.733 C17.145,13.974 18,13.3185 18,12 C18,10.3431458 16.6568542,9 15,9 C13.3431458,9 12,10.3431458 12,12 L9,12 C9,8.6862915 11.6862915,6 15,6 C18.3137085,6 21,8.6862915 21,12 C20.8925875,13.6185273 20.0244947,15.0903898 18.66,15.9675 C17.4265535,16.7417865 16.6271021,18.0492226 16.5,19.5 Z" id="Shape"></path>
        </g>
    </g>
</svg>
