<?xml version="1.0" encoding="UTF-8"?>
<svg width="32px" height="32px" viewBox="0 0 32 32" version="1.1" xmlns="http://www.w3.org/2000/svg" xmlns:xlink="http://www.w3.org/1999/xlink">
    <!-- Generator: Sketch 40.1 (33804) - http://www.bohemiancoding.com/sketch -->
    <title>savings</title>
    <desc>Created with Sketch.</desc>
    <defs></defs>
    <g id="Page-1" stroke="none" stroke-width="1" fill="none" fill-rule="evenodd">
        <g id="savings" fill="#000000">
            <path d="M5.54241943,3.21202138 L6.74241943,2.01202138 L6.74241943,30.0113784 L5.54241943,28.8113784 L26.5419372,28.8113784 L25.3419372,30.0113784 L25.3419372,2.01202138 L26.5419372,3.21202138 L5.54241943,3.21202138 Z M26.5419372,2.01202138 L26.5419372,30.0113784 L5.54241943,30.0113784 L5.54241943,2.01202138 L26.5419372,2.01202138 Z" id="Rectangle-4"></path>
            <path d="M9.04233906,6.71194101 L10.2423391,5.51194101 L10.2423391,10.7618204 L9.04233906,9.56182045 L23.0420176,9.56182045 L21.8420176,10.7618204 L21.8420176,5.51194101 L23.0420176,6.71194101 L9.04233906,6.71194101 Z M23.0420176,5.51194101 L23.0420176,10.7618204 L9.04233906,10.7618204 L9.04233906,5.51194101 L23.0420176,5.51194101 Z" id="Rectangle-5"></path>
            <path d="M9.04233906,13.7117803 L10.2423391,12.5117803 L10.2423391,16.0116999 L9.04233906,14.8116999 L12.5422587,14.8116999 L11.3422587,16.0116999 L11.3422587,12.5117803 L12.5422587,13.7117803 L9.04233906,13.7117803 Z M12.5422587,12.5117803 L12.5422587,16.0116999 L9.04233906,16.0116999 L9.04233906,12.5117803 L12.5422587,12.5117803 Z" id="Rectangle-6"></path>
            <path d="M9.04233906,18.9616597 L10.2423391,17.7616597 L10.2423391,21.2615793 L9.04233906,20.0615793 L12.5422587,20.0615793 L11.3422587,21.2615793 L11.3422587,17.7616597 L12.5422587,18.9616597 L9.04233906,18.9616597 Z M12.5422587,17.7616597 L12.5422587,21.2615793 L9.04233906,21.2615793 L9.04233906,17.7616597 L12.5422587,17.7616597 Z" id="Rectangle-6-Copy-3"></path>
            <path d="M9.04233906,24.2115391 L10.2423391,23.0115391 L10.2423391,26.5114588 L9.04233906,25.3114588 L12.5422587,25.3114588 L11.3422587,26.5114588 L11.3422587,23.0115391 L12.5422587,24.2115391 L9.04233906,24.2115391 Z M12.5422587,23.0115391 L12.5422587,26.5114588 L9.04233906,26.5114588 L9.04233906,23.0115391 L12.5422587,23.0115391 Z" id="Rectangle-6-Copy-6"></path>
            <path d="M14.2922185,13.7117803 L15.4922185,12.5117803 L15.4922185,16.0116999 L14.2922185,14.8116999 L17.7921381,14.8116999 L16.5921381,16.0116999 L16.5921381,12.5117803 L17.7921381,13.7117803 L14.2922185,13.7117803 Z M17.7921381,12.5117803 L17.7921381,16.0116999 L14.2922185,16.0116999 L14.2922185,12.5117803 L17.7921381,12.5117803 Z" id="Rectangle-6-Copy"></path>
            <path d="M14.2922185,18.9616597 L15.4922185,17.7616597 L15.4922185,21.2615793 L14.2922185,20.0615793 L17.7921381,20.0615793 L16.5921381,21.2615793 L16.5921381,17.7616597 L17.7921381,18.9616597 L14.2922185,18.9616597 Z M17.7921381,17.7616597 L17.7921381,21.2615793 L14.2922185,21.2615793 L14.2922185,17.7616597 L17.7921381,17.7616597 Z" id="Rectangle-6-Copy-4"></path>
            <path d="M14.2922185,24.2115391 L15.4922185,23.0115391 L15.4922185,26.5114588 L14.2922185,25.3114588 L17.7921381,25.3114588 L16.5921381,26.5114588 L16.5921381,23.0115391 L17.7921381,24.2115391 L14.2922185,24.2115391 Z M17.7921381,23.0115391 L17.7921381,26.5114588 L14.2922185,26.5114588 L14.2922185,23.0115391 L17.7921381,23.0115391 Z" id="Rectangle-6-Copy-7"></path>
            <path d="M19.5420979,13.7117803 L20.7420979,12.5117803 L20.7420979,16.0116999 L19.5420979,14.8116999 L23.0420176,14.8116999 L21.8420176,16.0116999 L21.8420176,12.5117803 L23.0420176,13.7117803 L19.5420979,13.7117803 Z M23.0420176,12.5117803 L23.0420176,16.0116999 L19.5420979,16.0116999 L19.5420979,12.5117803 L23.0420176,12.5117803 Z" id="Rectangle-6-Copy-2"></path>
            <path d="M19.5420979,18.9616597 L20.7420979,17.7616597 L20.7420979,21.2615793 L19.5420979,20.0615793 L23.0420176,20.0615793 L21.8420176,21.2615793 L21.8420176,17.7616597 L23.0420176,18.9616597 L19.5420979,18.9616597 Z M23.0420176,17.7616597 L23.0420176,21.2615793 L19.5420979,21.2615793 L19.5420979,17.7616597 L23.0420176,17.7616597 Z" id="Rectangle-6-Copy-5"></path>
            <path d="M19.5420979,24.2115391 L20.7420979,23.0115391 L20.7420979,26.5114588 L19.5420979,25.3114588 L23.0420176,25.3114588 L21.8420176,26.5114588 L21.8420176,23.0115391 L23.0420176,24.2115391 L19.5420979,24.2115391 Z M23.0420176,23.0115391 L23.0420176,26.5114588 L19.5420979,26.5114588 L19.5420979,23.0115391 L23.0420176,23.0115391 Z" id="Rectangle-6-Copy-8"></path>
        </g>
    </g>
</svg>
