<svg height="32" viewBox="0 0 32 32" width="32" xmlns="http://www.w3.org/2000/svg"><g fill-rule="evenodd"><path d="m5.54241943 3.21202138 1.2-1.2v27.99935702l-1.2-1.2h20.99951777l-1.2 1.2v-27.99935702l1.2 1.2zm20.99951777-1.2v27.99935702h-20.99951777v-27.99935702z"/><path d="m9.04233906 6.71194101 1.20000004-1.2v5.24987939l-1.20000004-1.19999995h13.99967854l-1.2 1.19999995v-5.24987939l1.2 1.2zm13.99967854-1.2v5.24987939h-13.99967854v-5.24987939z"/><path d="m9.04233906 13.7117803 1.20000004-1.2v3.4999196l-1.20000004-1.2h3.49991964l-1.2 1.2v-3.4999196l1.2 1.2zm3.49991964-1.2v3.4999196h-3.49991964v-3.4999196z"/><path d="m9.04233906 18.9616597 1.20000004-1.2v3.4999196l-1.20000004-1.2h3.49991964l-1.2 1.2v-3.4999196l1.2 1.2zm3.49991964-1.2v3.4999196h-3.49991964v-3.4999196z"/><path d="m9.04233906 24.2115391 1.20000004-1.2v3.4999197l-1.20000004-1.2h3.49991964l-1.2 1.2v-3.4999197l1.2 1.2zm3.49991964-1.2v3.4999197h-3.49991964v-3.4999197z"/><path d="m14.2922185 13.7117803 1.2-1.2v3.4999196l-1.2-1.2h3.4999196l-1.2 1.2v-3.4999196l1.2 1.2zm3.4999196-1.2v3.4999196h-3.4999196v-3.4999196z"/><path d="m14.2922185 18.9616597 1.2-1.2v3.4999196l-1.2-1.2h3.4999196l-1.2 1.2v-3.4999196l1.2 1.2zm3.4999196-1.2v3.4999196h-3.4999196v-3.4999196z"/><path d="m14.2922185 24.2115391 1.2-1.2v3.4999197l-1.2-1.2h3.4999196l-1.2 1.2v-3.4999197l1.2 1.2zm3.4999196-1.2v3.4999197h-3.4999196v-3.4999197z"/><path d="m19.5420979 13.7117803 1.2-1.2v3.4999196l-1.2-1.2h3.4999197l-1.2 1.2v-3.4999196l1.2 1.2zm3.4999197-1.2v3.4999196h-3.4999197v-3.4999196z"/><path d="m19.5420979 18.9616597 1.2-1.2v3.4999196l-1.2-1.2h3.4999197l-1.2 1.2v-3.4999196l1.2 1.2zm3.4999197-1.2v3.4999196h-3.4999197v-3.4999196z"/><path d="m19.5420979 24.2115391 1.2-1.2v3.4999197l-1.2-1.2h3.4999197l-1.2 1.2v-3.4999197l1.2 1.2zm3.4999197-1.2v3.4999197h-3.4999197v-3.4999197z"/></g></svg>