<svg height="32" viewBox="0 0 32 32" width="32" xmlns="http://www.w3.org/2000/svg"><g fill-rule="evenodd" transform="translate(4 4)"><path d="m22.1840741 5.56921941c-.1746344-.07986502-.1746344-.07986502-.3786535-.17320586l-.1791109-.08195818-.1868852.06222354-1.3065.435.1579505.47439609.1494648-.47713759c-.1777062-.05567376-.1777062-.05567376-.3374447-.10573267-.1597615-.05006609-.1597615-.05006609-.3375553-.10576733l-.1494648.47713759.3932429-.30880422c-.4997892-.63645029-1.074182-1.20905982-1.7113213-1.70904279l-.3086716.39334701.4771376-.14946479c-.0557012-.17779384-.0557012-.17779384-.1057673-.33755529-.0500589-.15973855-.0500589-.15973855-.1057327-.33744471l-.4771376.14946479.4743688.15803228.43575-1.308.0622716-.18692172-.081979-.17915616c-.0933408-.20401907-.0933408-.20401907-.1732058-.37865349-.079885-.17467808-.079885-.17467808-.1732942-.37884651l-.081768-.17869522-.1815566-.07520097-2.66175-1.1025-.1816367-.07523413-.1842344.06862735c-.2102987.07839259-.2102987.07839259-.3903856.1456438-.1799131.06718629-.1799131.06718629-.3896144.1453562l-.1844562.06870994-.0881143.17601429-.61725 1.233.4471048.22382434-.2316271-.44311272c-.1651798.08639309-.1651798.08639309-.31347.1640555-.1481473.07758759-.1481473.07758759-.31278.1636945l.2316271.44311272.0600188-.49638468c-.8041702-.09723366-1.6152389-.09842233-2.4193387-.001524l.0598199.49640868.2316271-.44311272c-.3135-.163875-.3135-.163875-.627-.32775l-.2316271.44311272.4471046-.22382461-.6165-1.23149999-.08811421-.17601409-.18445605-.06870988c-.20883743-.07788233-.20883743-.07788233-.38809876-.14489487-.18129661-.06773837-.18129661-.06773837-.39228362-.14624739l-.18406968-.06839497-.18141912.07514401-2.66175 1.1025-.18155661.07520097-.081768.17869522c-.14769003.32276081-.22311338.48797387-.34619162.75846785l-.08132253.17872579.06202951.18630244.435 1.3065.47439609-.15795048-.47713759-.14946479c-.05567376.17770616-.05567376.17770616-.10573267.33744471-.05006609.15976145-.05006609.15976145-.10576733.33755529l.47713759.14946479-.30856997-.39342671c-.63741172.49993077-1.21019557 1.07449837-1.70951616 1.71181011l.39358613.3083666-.14946479-.47713759c-.17779384.05570124-.17779384.05570124-.33755529.10576733-.15973855.05005891-.15973855.05005891-.33744471.10573267l.14946479.47713759.15770596-.47447743-1.30875-.435-.18645919-.06197497-.17876639.08155064c-.20230306.09226082-.20230306.09226082-.37605458.17153443-.17748341.081072-.17748341.081072-.38166447.17465889l-.17829673.08179592-.07511036.1812146-1.10325 2.66175-.07554696.18226795.06927813.18474169c.07845247.20945587.07845247.20945587.14542122.38903691.06755106.18139709.06755106.18139709.1451948.38993571l.06870994.18445621.17601429.08811425 1.233.61725.22382434-.4471048-.44252143.2327548c.08627275.1642356.08627275.1642356.1635728.3120123.07818715.1496546.07818715.1496546.16358591.31311l.44311272-.2316271-.49638468-.0600188c-.09723366.8041702-.09842233 1.6152389-.001524 2.4193387l.49640868-.0598199-.44311272-.2316271c-.08625.165-.08625.165-.163875.3135s-.077625.1485-.163875.3135l.44311272.2316271-.22382461-.4471046-1.23149999.6165-.17601409.0881142-.06870988.1844561c-.07758164.2082796-.07758164.2082796-.14404264.386565-.0679211.1820422-.0679211.1820422-.1467172.3927916l-.0690436.1845765.07545625.1820491 1.10325 2.66175.07511036.1812146.17829673.0817959c.20418106.0935869.20418106.0935869.3792175.1735419.17619849.0803906.17619849.0803906.37850155.1726515l.17885657.0815917.18653194-.0620703 1.30725-.435-.15786889-.4744232-.14987582.4770086c.33699589.1058272.33699589.1058272.67466103.211629l.14946479-.4771376-.39342671.30857c.50032376.6379128 1.07508457 1.2106916 1.71279912 1.7097033l.30812759-.3937733-.47713759.1494648c.05570124.1777938.05570124.1777938.10576733.3375553.05005891.1597385.05005891.1597385.10573267.3374447l.47713759-.1494648-.47436884-.1580323-.43575 1.308-.06207737.186339.08134314.178771c.09232797.2029166.09232797.2029166.17167176.3770106.08140603.1783091.08140603.1783091.17472287.3819004l.08182485.1783598.18129675.0750933 2.66175 1.1025.18141912.075144.18406968-.068395c.33782055-.1255243.50545779-.1880442.78140976-.2915262l.18364644-.0688674.08784204-.1753639.61725-1.23225-.4470502-.2239333.2327548.4425214c.1633382-.085802.1633382-.085802.3102816-.1626198.151299-.0789463.151299-.0789463.3150014-.1642313l-.2310378-.4434203-.0600774.4963776c.8034313.0972407 1.6145164.0984294 2.4193401.001538l-.0597627-.4964156-.2316271.4431127c.1646327.0861069.1646327.0861069.31278.1636945.1482902.0776624.1482902.0776624.31347.1640555l.2316271-.4431127-.4471046.2238246.6165 1.2315.0881142.1760141.1844561.0687099c.2085386.0776437.2085386.0776437.3869657.144088.182551.0680755.182551.0680755.3920069.146528l.1847417.0692781.1822679-.0755469 2.66175-1.10325.1812146-.0751104.0817959-.1782967c.0935665-.2041366.0935665-.2041366.1734972-.3789146.0798193-.1745345.0798193-.1745345.1730028-.3778354l.0822295-.1792417-.0622647-.1871159-.435-1.30725-.4744232.1578689.4770086.1498758c.1058272-.3369959.1058272-.3369959.211629-.674661l-.4771376-.1494648.3088042.3932429c.6382647-.501214 1.2115027-1.0762365 1.7094691-1.7126153l-.3937733-.3081276.1494648.4771376c.1777938-.0557012.1777938-.0557012.3375553-.1057673.1597385-.0500589.1597385-.0500589.3374447-.1057327l-.1494648-.4771376-.1580323.4743688 1.308.43575.186339.0620774.178771-.0813431c.2047684-.0933075.2047684-.0933075.3796214-.1732725.1744595-.079785.1744595-.079785.3778786-.1724775l.179428-.0816421.0754361-.1821242 1.1025-2.66175.075144-.1814191-.068395-.1840697c-.078509-.210987-.078509-.210987-.1458309-.3911692-.067429-.1803757-.067429-.1803757-.1453113-.3892131l-.06871-.1844562-.1760143-.0881143-1.233-.61725-.2238243.4471048.4431127-.2316271c-.0859208-.1642774-.0859208-.1642774-.1630988-.3117354-.078351-.1497938-.078351-.1497938-.1643436-.3146753l-.4434203.2310378.4963776.0600774c.0971325-.8025376.0985191-1.613504.0023449-2.4188649l-.4964725.0592875.4437027.2304949c.084525-.1624938.084525-.1624938.1609218-.3087275.0791216-.151261.0791216-.151261.1654882-.3163903l-.4431127-.2316271.2238246.4471046 1.2315-.6165.1760141-.08811421.0687099-.18445605c.0781699-.20970133.0781699-.20970133.1453562-.38961443.0672512-.1800869.0672512-.1800869.1456438-.39038557l.0686273-.18423449-.0752341-.18163669-1.1025-2.66175-.075201-.18155661-.1786952-.081768c-.2041684-.09340916-.2041684-.09340916-.3788465-.17329414zm.1708009.62795559-.4619418.19133684 1.1025 2.66175.4619418-.19133684-.4685486-.17453434c-.0781699.20970133-.0781699.20970133-.1453562.38961443-.0672512.1800869-.0672512.1800869-.1456438.39038557l.4685486.17453434-.2238246-.44710463-1.2315.6165-.1444529.0723144-.0748352.14316313c-.0861334.1646832-.0861334.1646832-.1637734.31311-.0785727.1503964-.0785727.1503964-.1638166.3142722l-.0710435.1367588.0182737.1530236c.0866678.7257551.0854182 1.4565786-.0021551 2.1801351l-.0186098.1537597.0715671.1373555c.0865074.1658685.0865074.1658685.1642727.3145429.0781215.1492611.0781215.1492611.1637849.3130464l.0748353.1431633.1444531.0723144 1.233.61725.2238243-.4471048-.4685486.1745343c.0782296.2097686.0782296.2097686.1452727.3891114.0675316.1807433.0675316.1807433.1455851.3905063l.4686908-.174152-.4619418-.1913368-1.1025 2.66175.4619418.1913368-.2070777-.4551031c-.2047684.0933075-.2047684.0933075-.3796214.1732725-.1744595.079785-.1744595.079785-.3778786.1724775l.2070777.4551031.1580323-.4743688-1.308-.43575-.1533012-.0510711-.1541959.0483023c-.1777938.0557012-.1777938.0557012-.3375553.1057673-.1597385.0500589-.1597385.0500589-.3374447.1057327l-.1484451.0465009-.0958634.1225091c-.4485188.573187-.9647396 1.0910149-1.5395309 1.5423847l-.1219734.0957828-.04636.1479953c-.1056982.3373349-.1056982.3373349-.211371.673839l-.048478.1542905.0510634.1534542.435 1.30725.4744232-.1578689-.4544584-.2084887c-.0935665.2041366-.0935665.2041366-.1734972.3789146-.0798193.1745345-.0798193.1745345-.1730028.3778354l.4544584.2084887-.1914479-.4618958-2.66175 1.10325.1914479.4618958.1755617-.4681646c-.2105441-.07886-.2105441-.07886-.3909631-.1461413-.1818281-.0677116-.1818281-.0677116-.3900643-.1452427l-.1745343.4685486.4471046-.2238246-.6165-1.2315-.0723144-.1444529-.1431631-.0748352c-.1646327-.0861069-.1646327-.0861069-.31278-.1636945-.1482902-.0776624-.1482902-.0776624-.31347-.1640555l-.1374291-.0718379-.1539607.018535c-.7248296.0872611-1.4554508.0861903-2.1796599-.001462l-.1537597-.0186098-.1373555.0715671c-.1637418.0853055-.1637418.0853055-.3110791.1621823-.1529135.0799365-.1529135.0799365-.3176379.1664666l-.14229071.0748412-.07200471.1437469-.61725 1.23225.44705022.2239333-.17556172-.4681646c-.27490517.1030895-.44164025.1652729-.77859024.2904738l.17415196.4686908.19133684-.4619418-2.66175-1.1025-.19133684.4619418.45445844-.2084887c-.09287594-.2026293-.09287594-.2026293-.17219612-.3763667-.08063166-.1769166-.08063166-.1769166-.17290925-.3797223l-.45510307.2070777.47436884.1580323.43575-1.308.05107108-.1533012-.04830233-.1541959c-.05570124-.1777938-.05570124-.1777938-.10576733-.3375553-.05005891-.1597385-.05005891-.1597385-.10573267-.3374447l-.04650087-.1484451-.12250913-.0958634c-.57448843-.4495372-1.09190544-.96517-1.54220088-1.5392967l-.09581087-.1221588-.14815105-.0464088c-.33733486-.1056982-.33733486-.1056982-.67383897-.211371l-.15429048-.048478-.15345423.0510634-1.30725.435.15786889.4744232.20751962-.4549018c-.20248704-.0923447-.20248704-.0923447-.37580991-.1714227-.1767146-.0807208-.1767146-.0807208-.37997104-.1738839l-.20848867.4544584.46189576-.1914479-1.10325-2.66175-.46189576.1914479.46830841.1751777c.07896791-.2112089.07896791-.2112089.14636859-.3918554.06727836-.1804772.06727836-.1804772.14487157-.388788l-.46854857-.1745343.22382461.4471046 1.2315-.6165.14445284-.0723144.07483527-.1431631c.08625-.165.08625-.165.163875-.3135s.077625-.1485.163875-.3135l.07185257-.1374571-.01855661-.1539899c-.08725409-.7240682-.08618334-1.4546755.001476-2.1796613l.01863147-.1540915-.07190343-.1375544c-.08519171-.1630592-.08519171-.1630592-.16196677-.3100127-.07939727-.1517881-.07939727-.1517881-.16637452-.317365l-.07487252-.14235019-.14382457-.07199977-1.233-.61725-.22382434.44710476.46854857-.17453434c-.07753111-.20823619-.07753111-.20823619-.14413202-.38708379-.06839193-.18339946-.06839193-.18339946-.14725196-.39394359l-.46816459.17556172.46189576.19144792 1.10325-2.66175-.46189576-.19144792.20848867.45445844c.20325644-.09316311.20325644-.09316311.3775325-.17277069.17576141-.08019126.17576141-.08019126.37824845-.17253599l-.20751962-.45490176-.15770596.47447743 1.30875.435.15315604.05090573.15401471-.04824557c.17779384-.05570124.17779384-.05570124.33755529-.10576733.15973855-.05005891.15973855-.05005891.33744471-.10573267l.14828624-.04645112.0958351-.12231987c.4499596-.57430946.96573373-1.09168981 1.53948384-1.54168989l.12215885-.09581087.04640877-.14815105c.05567376-.17770616.05567376-.17770616.10573267-.33744471.05006609-.15976145.05006609-.15976145.10576733-.33755529l.0482881-.15415049-.0510296-.15326478-.435-1.3065-.47439609.15795048.45510307.20707775c.1227551-.2697838.19789315-.43437191.34530838-.75653215l-.45466145-.2080456.19133684.46194179 2.66175-1.1025-.19133684-.46194179-.17415196.46869083c.20976299.07805348.20976299.07805348.3893933.14516911.1804558.06745903.1804558.06745903.39022432.14568863l.17453434-.46854857-.44710463.22382461.6165 1.2315.0723144.14445284.14316313.07483527.627.32775.1374571.07185257.1539899-.01855661c.7240682-.08725409 1.4546755-.08618334 2.1796613.001476l.1540915.01863147.1375544-.07190343c.1651798-.08639309.1651798-.08639309.31347-.1640555.1481473-.07758759.1481473-.07758759.31278-.1636945l.1431633-.07483534.0723144-.14445304.61725-1.233-.4471048-.22382434.1745343.46854857c.2102987-.07839259.2102987-.07839259.3903856-.1456438.1799131-.06718629.1799131-.06718629.3896144-.1453562l-.1745343-.46854857-.1913368.46194179 2.66175 1.1025.1913368-.46194179-.4546614.2080456c.0933408.20401907.0933408.20401907.1732058.37865349.079885.17467808.079885.17467808.1732942.37884651l.4546614-.2080456-.4743688-.15803228-.43575 1.308-.0510711.15330115.0483023.15419592c.0557012.17779384.0557012.17779384.1057673.33755529.0500589.15973855.0500589.15973855.1057327.33744471l.0463876.14808351.1220784.09579871c.5745593.45087438 1.092094.96680238 1.5421787 1.53995721l.0957828.1219734.1479953.04635997c.1777062.05567376.1777062.05567376.3374447.10573267.1597615.05006609.1597615.05006609.3375553.10576733l.1541505.0482881.1532648-.0510296 1.3065-.435-.1579505-.47439609-.2080456.45466145c.2041684.09340916.2041684.09340916.3788465.17329414.1746344.07986502.1746344.07986502.3786535.17320586z"/><path d="m12.025275 17.107825c-2.84259927 0-5.14675-2.3001343-5.14675-5.137 0-2.83686568 2.30415073-5.137 5.14675-5.137 2.8425993 0 5.14675 2.30013432 5.14675 5.137 0 2.8368657-2.3041507 5.137-5.14675 5.137zm0-11.274c-3.39449385 0-6.14675 2.74745864-6.14675 6.137 0 3.3895414 2.75225615 6.137 6.14675 6.137 3.3944938 0 6.14675-2.7474586 6.14675-6.137 0-3.38954136-2.7522562-6.137-6.14675-6.137z"/></g></svg>