<?xml version="1.0" encoding="UTF-8"?>
<svg width="32px" height="32px" viewBox="0 0 32 32" version="1.1" xmlns="http://www.w3.org/2000/svg" xmlns:xlink="http://www.w3.org/1999/xlink">
    <!-- Generator: Sketch 40.1 (33804) - http://www.bohemiancoding.com/sketch -->
    <title>settings</title>
    <desc>Created with Sketch.</desc>
    <defs></defs>
    <g id="Page-1" stroke="none" stroke-width="1" fill="none" fill-rule="evenodd">
        <g id="settings" fill="#000000">
            <g id="Page-1" transform="translate(4.000000, 4.000000)">
                <path d="M22.1840741,5.56921941 C22.0094397,5.48935439 22.0094397,5.48935439 21.8054206,5.39601355 L21.6263097,5.31405537 L21.4394245,5.37627891 L20.1329245,5.81127891 L20.290875,6.285675 L20.4403398,5.80853741 C20.2626336,5.75286365 20.2626336,5.75286365 20.1028951,5.70280474 C19.9431336,5.65273865 19.9431336,5.65273865 19.7653398,5.59703741 L19.615875,6.074175 L20.0091179,5.76537078 C19.5093287,5.12892049 18.9349359,4.55631096 18.2977966,4.05632799 L17.989125,4.449675 L18.4662626,4.30021021 C18.4105614,4.12241637 18.4105614,4.12241637 18.3604953,3.96265492 C18.3104364,3.80291637 18.3104364,3.80291637 18.2547626,3.62521021 L17.777625,3.774675 L18.2519938,3.93270728 L18.6877438,2.62470728 L18.7500154,2.43778556 L18.6680364,2.2586294 C18.5746956,2.05461033 18.5746956,2.05461033 18.4948306,1.87997591 C18.4149456,1.70529783 18.4149456,1.70529783 18.3215364,1.5011294 L18.2397684,1.32243418 L18.0582118,1.24723321 L15.3964618,0.144733212 L15.2148251,0.0694990813 L15.0305907,0.138126429 C14.820292,0.216519024 14.820292,0.216519024 14.6402051,0.283770232 C14.460292,0.350956524 14.460292,0.350956524 14.2505907,0.429126429 L14.0661345,0.497836365 L13.9780202,0.673850659 L13.3607702,1.90685066 L13.807875,2.130675 L13.5762479,1.68756228 C13.4110681,1.77395537 13.4110681,1.77395537 13.2627779,1.85161778 C13.1146306,1.92920537 13.1146306,1.92920537 12.9499979,2.01531228 L13.181625,2.458425 L13.2416438,1.96204032 C12.4374736,1.86480666 11.6264049,1.86361799 10.8223051,1.96051632 L10.882125,2.456925 L11.1137521,2.01381228 C10.8002521,1.84993728 10.8002521,1.84993728 10.4867521,1.68606228 L10.255125,2.129175 L10.7022296,1.90535039 L10.0857296,0.673850395 L9.99761539,0.497836305 L9.81315934,0.429126429 C9.60432191,0.351244103 9.60432191,0.351244103 9.42506058,0.284231555 C9.24376397,0.216493191 9.24376397,0.216493191 9.03277696,0.137984167 L8.84870728,0.0695892004 L8.66728816,0.144733212 L6.00553816,1.24723321 L5.82398155,1.32243418 L5.74221355,1.5011294 C5.59452352,1.82389021 5.51910017,1.98910327 5.39602193,2.25959725 L5.3146994,2.43832304 L5.37672891,2.62462548 L5.81172891,3.93112548 L6.286125,3.773175 L5.80898741,3.62371021 C5.75331365,3.80141637 5.75331365,3.80141637 5.70325474,3.96115492 C5.65318865,4.12091637 5.65318865,4.12091637 5.59748741,4.29871021 L6.074625,4.448175 L5.76605503,4.05474829 C5.12864331,4.55467906 4.55585946,5.12924666 4.05653887,5.7665584 L4.450125,6.074925 L4.30066021,5.59778741 C4.12286637,5.65348865 4.12286637,5.65348865 3.96310492,5.70355474 C3.80336637,5.75361365 3.80336637,5.75361365 3.62566021,5.80928741 L3.775125,6.286425 L3.93283096,5.81194757 L2.62408096,5.37694757 L2.43762177,5.3149726 L2.25885538,5.39652324 C2.05655232,5.48878406 2.05655232,5.48878406 1.8828008,5.56805767 C1.70531739,5.64912967 1.70531739,5.64912967 1.50113633,5.74271656 L1.3228396,5.82451248 L1.24772924,6.00572708 L0.144479239,8.66747708 L0.068932279,8.84974503 L0.138210411,9.03448672 C0.216662879,9.24394259 0.216662879,9.24394259 0.28363163,9.42352363 C0.351182691,9.60492072 0.351182691,9.60492072 0.428826429,9.81345934 L0.497536365,9.99791555 L0.673550659,10.0860298 L1.90655066,10.7032798 L2.130375,10.256175 L1.68785357,10.4889298 C1.77412632,10.6531654 1.77412632,10.6531654 1.85142637,10.8009421 C1.92961352,10.9505967 1.92961352,10.9505967 2.01501228,11.1140521 L2.458125,10.882425 L1.96174032,10.8224062 C1.86450666,11.6265764 1.86331799,12.4376451 1.96021632,13.2417449 L2.456625,13.181925 L2.01351228,12.9502979 C1.92726228,13.1152979 1.92726228,13.1152979 1.84963728,13.2637979 C1.77201228,13.4122979 1.77201228,13.4122979 1.68576228,13.5772979 L2.128875,13.808925 L1.90505039,13.3618204 L0.673550395,13.9783204 L0.497536305,14.0664346 L0.428826429,14.2508907 C0.351244792,14.4591703 0.351244792,14.4591703 0.284783788,14.6374557 C0.216862691,14.8194979 0.216862691,14.8194979 0.138066587,15.0302473 L0.0690229939,15.2148238 L0.144479239,15.3968729 L1.24772924,18.0586229 L1.3228396,18.2398375 L1.50113633,18.3216334 C1.70531739,18.4152203 1.70531739,18.4152203 1.88035383,18.4951753 C2.05655232,18.5755659 2.05655232,18.5755659 2.25885538,18.6678268 L2.43771195,18.7494185 L2.62424389,18.6873482 L3.93149389,18.2523482 L3.773625,17.777925 L3.62374918,18.2549336 C3.96074507,18.3607608 3.96074507,18.3607608 4.29841021,18.4665626 L4.447875,17.989425 L4.05444829,18.297995 C4.55477205,18.9359078 5.12953286,19.5086866 5.76724741,20.0076983 L6.075375,19.613925 L5.59823741,19.7633898 C5.65393865,19.9411836 5.65393865,19.9411836 5.70400474,20.1009451 C5.75406365,20.2606836 5.75406365,20.2606836 5.80973741,20.4383898 L6.286875,20.288925 L5.81250616,20.1308927 L5.37675616,21.4388927 L5.31467879,21.6252317 L5.39602193,21.8040027 C5.4883499,22.0069193 5.4883499,22.0069193 5.56769369,22.1810133 C5.64909972,22.3593224 5.64909972,22.3593224 5.74241656,22.5629137 L5.82424141,22.7412735 L6.00553816,22.8163668 L8.66728816,23.9188668 L8.84870728,23.9940108 L9.03277696,23.9256158 C9.37059751,23.8000915 9.53823475,23.7375716 9.81418672,23.6340896 L9.99783316,23.5652222 L10.0856752,23.3898583 L10.7029252,22.1576083 L10.255875,21.933675 L10.4886298,22.3761964 C10.651968,22.2903944 10.651968,22.2903944 10.7989114,22.2135766 C10.9502104,22.1346303 10.9502104,22.1346303 11.1139128,22.0493453 L10.882875,21.605925 L10.8227976,22.1023026 C11.6262289,22.1995433 12.437314,22.200732 13.2421377,22.1038406 L13.182375,21.607425 L12.9507479,22.0505377 C13.1153806,22.1366446 13.1153806,22.1366446 13.2635279,22.2142322 C13.4118181,22.2918946 13.4118181,22.2918946 13.5769979,22.3782877 L13.808625,21.935175 L13.3615204,22.1589996 L13.9780204,23.3904996 L14.0661346,23.5665137 L14.2505907,23.6352236 C14.4591293,23.7128673 14.4591293,23.7128673 14.6375564,23.7793116 C14.8201074,23.8473871 14.8201074,23.8473871 15.0295633,23.9258396 L15.214305,23.9951177 L15.3965729,23.9195708 L18.0583229,22.8163208 L18.2395375,22.7412104 L18.3213334,22.5629137 C18.4148999,22.3587771 18.4148999,22.3587771 18.4948306,22.1839991 C18.5746499,22.0094646 18.5746499,22.0094646 18.6678334,21.8061637 L18.7500629,21.626922 L18.6877982,21.4398061 L18.2527982,20.1325561 L17.778375,20.290425 L18.2553836,20.4403008 C18.3612108,20.1033049 18.3612108,20.1033049 18.4670126,19.7656398 L17.989875,19.616175 L18.2986792,20.0094179 C18.9369439,19.5082039 19.5101819,18.9331814 20.0081483,18.2968026 L19.614375,17.988675 L19.7638398,18.4658126 C19.9416336,18.4101114 19.9416336,18.4101114 20.1013951,18.3600453 C20.2611336,18.3099864 20.2611336,18.3099864 20.4388398,18.2543126 L20.289375,17.777175 L20.1313427,18.2515438 L21.4393427,18.6872938 L21.6256817,18.7493712 L21.8044527,18.6680281 C22.0092211,18.5747206 22.0092211,18.5747206 22.1840741,18.4947556 C22.3585336,18.4149706 22.3585336,18.4149706 22.5619527,18.3222781 L22.7413807,18.240636 L22.8168168,18.0585118 L23.9193168,15.3967618 L23.9944608,15.2153427 L23.9260658,15.031273 C23.8475568,14.820286 23.8475568,14.820286 23.7802349,14.6401038 C23.7128059,14.4597281 23.7128059,14.4597281 23.6349236,14.2508907 L23.5662136,14.0664345 L23.3901993,13.9783202 L22.1571993,13.3610702 L21.933375,13.808175 L22.3764877,13.5765479 C22.2905669,13.4122705 22.2905669,13.4122705 22.2133889,13.2648125 C22.1350379,13.1150187 22.1350379,13.1150187 22.0490453,12.9501372 L21.605625,13.181175 L22.1020026,13.2412524 C22.1991351,12.4387148 22.2005217,11.6277484 22.1043475,10.8223875 L21.607875,10.881675 L22.0515777,11.1121699 C22.1361027,10.9496761 22.1361027,10.9496761 22.2124995,10.8034424 C22.2916211,10.6521814 22.2916211,10.6521814 22.3779877,10.4870521 L21.934875,10.255425 L22.1586996,10.7025296 L23.3901996,10.0860296 L23.5662137,9.99791539 L23.6349236,9.81345934 C23.7130935,9.60375801 23.7130935,9.60375801 23.7802798,9.42384491 C23.847531,9.24375801 23.847531,9.24375801 23.9259236,9.03345934 L23.9945509,8.84922485 L23.9193168,8.66758816 L22.8168168,6.00583816 L22.7416158,5.82428155 L22.5629206,5.74251355 C22.3587522,5.64910439 22.3587522,5.64910439 22.1840741,5.56921941 Z M22.354875,6.197175 L21.8929332,6.38851184 L22.9954332,9.05026184 L23.457375,8.858925 L22.9888264,8.68439066 C22.9106565,8.89409199 22.9106565,8.89409199 22.8434702,9.07400509 C22.776219,9.25409199 22.776219,9.25409199 22.6978264,9.46439066 L23.166375,9.638925 L22.9425504,9.19182037 L21.7110504,9.80832037 L21.5665975,9.88063477 L21.4917623,10.0237979 C21.4056289,10.1884811 21.4056289,10.1884811 21.3279889,10.3369079 C21.2494162,10.4873043 21.2494162,10.4873043 21.1641723,10.6511801 L21.0931288,10.7879389 L21.1114025,10.9409625 C21.1980703,11.6667176 21.1968207,12.3975411 21.1092474,13.1210976 L21.0906376,13.2748573 L21.1622047,13.4122128 C21.2487121,13.5780813 21.2487121,13.5780813 21.3264774,13.7267557 C21.4045989,13.8760168 21.4045989,13.8760168 21.4902623,14.0398021 L21.5650976,14.1829654 L21.7095507,14.2552798 L22.9425507,14.8725298 L23.166375,14.425425 L22.6978264,14.5999593 C22.776056,14.8097279 22.776056,14.8097279 22.8430991,14.9890707 C22.9106307,15.169814 22.9106307,15.169814 22.9886842,15.379577 L23.457375,15.205425 L22.9954332,15.0140882 L21.8929332,17.6758382 L22.354875,17.867175 L22.1477973,17.4120719 C21.9430289,17.5053794 21.9430289,17.5053794 21.7681759,17.5853444 C21.5937164,17.6651294 21.5937164,17.6651294 21.3902973,17.7578219 L21.597375,18.212925 L21.7554073,17.7385562 L20.4474073,17.3028062 L20.2941061,17.2517351 L20.1399102,17.3000374 C19.9621164,17.3557386 19.9621164,17.3557386 19.8023549,17.4058047 C19.6426164,17.4558636 19.6426164,17.4558636 19.4649102,17.5115374 L19.3164651,17.5580383 L19.2206017,17.6805474 C18.7720829,18.2537344 18.2558621,18.7715623 17.6810708,19.2229321 L17.5590974,19.3187149 L17.5127374,19.4667102 C17.4070392,19.8040451 17.4070392,19.8040451 17.3013664,20.1405492 L17.2528884,20.2948397 L17.3039518,20.4482939 L17.7389518,21.7555439 L18.213375,21.597675 L17.7589166,21.3891863 C17.6653501,21.5933229 17.6653501,21.5933229 17.5854194,21.7681009 C17.5056001,21.9426354 17.5056001,21.9426354 17.4124166,22.1459363 L17.866875,22.354425 L17.6754271,21.8925292 L15.0136771,22.9957792 L15.205125,23.457675 L15.3806867,22.9895104 C15.1701426,22.9106504 15.1701426,22.9106504 14.9897236,22.8433691 C14.8078955,22.7756575 14.8078955,22.7756575 14.5996593,22.6981264 L14.425125,23.166675 L14.8722296,22.9428504 L14.2557296,21.7113504 L14.1834152,21.5668975 L14.0402521,21.4920623 C13.8756194,21.4059554 13.8756194,21.4059554 13.7274721,21.3283678 C13.5791819,21.2507054 13.5791819,21.2507054 13.4140021,21.1643123 L13.276573,21.0924744 L13.1226123,21.1110094 C12.3977827,21.1982705 11.6671615,21.1971997 10.9429524,21.1095474 L10.7891927,21.0909376 L10.6518372,21.1625047 C10.4880954,21.2478102 10.4880954,21.2478102 10.3407581,21.324687 C10.1878446,21.4046235 10.1878446,21.4046235 10.0231202,21.4911536 L9.88082949,21.5659948 L9.80882478,21.7097417 L9.19157478,22.9419917 L9.638625,23.165925 L9.46306328,22.6977604 C9.18815811,22.8008499 9.02142303,22.8630333 8.68447304,22.9882342 L8.858625,23.456925 L9.04996184,22.9949832 L6.38821184,21.8924832 L6.196875,22.354425 L6.65133344,22.1459363 C6.5584575,21.943307 6.5584575,21.943307 6.47913732,21.7695696 C6.39850566,21.592653 6.39850566,21.592653 6.30622807,21.3898473 L5.851125,21.596925 L6.32549384,21.7549573 L6.76124384,20.4469573 L6.81231492,20.2936561 L6.76401259,20.1394602 C6.70831135,19.9616664 6.70831135,19.9616664 6.65824526,19.8019049 C6.60818635,19.6421664 6.60818635,19.6421664 6.55251259,19.4644602 L6.50601172,19.3160151 L6.38350259,19.2201517 C5.80901416,18.7706145 5.29159715,18.2549817 4.84130171,17.680855 L4.74549084,17.5586962 L4.59733979,17.5122874 C4.26000493,17.4065892 4.26000493,17.4065892 3.92350082,17.3009164 L3.76921034,17.2524384 L3.61575611,17.3035018 L2.30850611,17.7385018 L2.466375,18.212925 L2.67389462,17.7580232 C2.47140758,17.6656785 2.47140758,17.6656785 2.29808471,17.5866005 C2.12137011,17.5058797 2.12137011,17.5058797 1.91811367,17.4127166 L1.709625,17.867175 L2.17152076,17.6757271 L1.06827076,15.0139771 L0.606375,15.205425 L1.07468341,15.3806027 C1.15365132,15.1693938 1.15365132,15.1693938 1.221052,14.9887473 C1.28833036,14.8082701 1.28833036,14.8082701 1.36592357,14.5999593 L0.897375,14.425425 L1.12119961,14.8725296 L2.35269961,14.2560296 L2.49715245,14.1837152 L2.57198772,14.0405521 C2.65823772,13.8755521 2.65823772,13.8755521 2.73586272,13.7270521 C2.81348772,13.5785521 2.81348772,13.5785521 2.89973772,13.4135521 L2.97159029,13.276095 L2.95303368,13.1221051 C2.86577959,12.3980369 2.86685034,11.6674296 2.95450968,10.9424438 L2.97314115,10.7883523 L2.90123772,10.6507979 C2.81604601,10.4877387 2.81604601,10.4877387 2.73927095,10.3407852 C2.65987368,10.1889971 2.65987368,10.1889971 2.57289643,10.0234202 L2.49802391,9.88107001 L2.35419934,9.80907024 L1.12119934,9.19182024 L0.897375,9.638925 L1.36592357,9.46439066 C1.28839246,9.25615447 1.28839246,9.25615447 1.22179155,9.07730687 C1.15339962,8.89390741 1.15339962,8.89390741 1.07453959,8.68336328 L0.606375,8.858925 L1.06827076,9.05037292 L2.17152076,6.38862292 L1.709625,6.197175 L1.91811367,6.65163344 C2.12137011,6.55847033 2.12137011,6.55847033 2.29564617,6.47886275 C2.47140758,6.39867149 2.47140758,6.39867149 2.67389462,6.30632676 L2.466375,5.851425 L2.30866904,6.32590243 L3.61741904,6.76090243 L3.77057508,6.81180816 L3.92458979,6.76356259 C4.10238363,6.70786135 4.10238363,6.70786135 4.26214508,6.65779526 C4.42188363,6.60773635 4.42188363,6.60773635 4.59958979,6.55206259 L4.74787603,6.50561147 L4.84371113,6.3832916 C5.29367073,5.80898214 5.80944486,5.29160179 6.38319497,4.84160171 L6.50535382,4.74579084 L6.55176259,4.59763979 C6.60743635,4.41993363 6.60743635,4.41993363 6.65749526,4.26019508 C6.70756135,4.10043363 6.70756135,4.10043363 6.76326259,3.92263979 L6.81155069,3.7684893 L6.76052109,3.61522452 L6.32552109,2.30872452 L5.851125,2.466675 L6.30622807,2.67375275 C6.42898317,2.40396895 6.50412122,2.23938084 6.65153645,1.9172206 L6.196875,1.709175 L6.38821184,2.17111679 L9.04996184,1.06861679 L8.858625,0.606675 L8.68447304,1.07536583 C8.89423603,1.15341931 8.89423603,1.15341931 9.07386634,1.22053494 C9.25432214,1.28799397 9.25432214,1.28799397 9.46409066,1.36622357 L9.638625,0.897675 L9.19152037,1.12149961 L9.80802037,2.35299961 L9.88033477,2.49745245 L10.0234979,2.57228772 C10.3369979,2.73616272 10.3369979,2.73616272 10.6504979,2.90003772 L10.787955,2.97189029 L10.9419449,2.95333368 C11.6660131,2.86607959 12.3966204,2.86715034 13.1216062,2.95480968 L13.2756977,2.97344115 L13.4132521,2.90153772 C13.5784319,2.81514463 13.5784319,2.81514463 13.7267221,2.73748222 C13.8748694,2.65989463 13.8748694,2.65989463 14.0395021,2.57378772 L14.1826654,2.49895238 L14.2549798,2.35449934 L14.8722298,1.12149934 L14.425125,0.897675 L14.5996593,1.36622357 C14.809958,1.28783098 14.809958,1.28783098 14.9900449,1.22057977 C15.169958,1.15339348 15.169958,1.15339348 15.3796593,1.07522357 L15.205125,0.606675 L15.0137882,1.06861679 L17.6755382,2.17111679 L17.866875,1.709175 L17.4122136,1.9172206 C17.5055544,2.12123967 17.5055544,2.12123967 17.5854194,2.29587409 C17.6653044,2.47055217 17.6653044,2.47055217 17.7587136,2.6747206 L18.213375,2.466675 L17.7390062,2.30864272 L17.3032562,3.61664272 L17.2521851,3.76994387 L17.3004874,3.92413979 C17.3561886,4.10193363 17.3561886,4.10193363 17.4062547,4.26169508 C17.4563136,4.42143363 17.4563136,4.42143363 17.5119874,4.59913979 L17.558375,4.7472233 L17.6804534,4.84302201 C18.2550127,5.29389639 18.7725474,5.80982439 19.2226321,6.38297922 L19.3184149,6.50495262 L19.4664102,6.55131259 C19.6441164,6.60698635 19.6441164,6.60698635 19.8038549,6.65704526 C19.9636164,6.70711135 19.9636164,6.70711135 20.1414102,6.76281259 L20.2955607,6.81110069 L20.4488255,6.76007109 L21.7553255,6.32507109 L21.597375,5.850675 L21.3893294,6.30533645 C21.5934978,6.39874561 21.5934978,6.39874561 21.7681759,6.47863059 C21.9428103,6.55849561 21.9428103,6.55849561 22.1468294,6.65183645 L22.354875,6.197175 Z" id="Stroke-1"></path>
                <path d="M12.025275,17.107825 C9.18267573,17.107825 6.878525,14.8076907 6.878525,11.970825 C6.878525,9.13395932 9.18267573,6.833825 12.025275,6.833825 C14.8678743,6.833825 17.172025,9.13395932 17.172025,11.970825 C17.172025,14.8076907 14.8678743,17.107825 12.025275,17.107825 Z M12.025275,5.833825 C8.63078115,5.833825 5.878525,8.58128364 5.878525,11.970825 C5.878525,15.3603664 8.63078115,18.107825 12.025275,18.107825 C15.4197688,18.107825 18.172025,15.3603664 18.172025,11.970825 C18.172025,8.58128364 15.4197688,5.833825 12.025275,5.833825 Z" id="Stroke-3"></path>
            </g>
        </g>
    </g>
</svg>