<?xml version="1.0" encoding="UTF-8" standalone="no"?>
<svg width="32px" height="32px" viewBox="0 0 32 32" version="1.1" xmlns="http://www.w3.org/2000/svg" xmlns:xlink="http://www.w3.org/1999/xlink">
    <!-- Generator: Sketch 39.1 (31720) - http://www.bohemiancoding.com/sketch -->
    <title>water</title>
    <desc>Created with Sketch.</desc>
    <defs></defs>
    <g id="Page-1" stroke="none" stroke-width="1" fill="none" fill-rule="evenodd">
        <g id="water" fill="#000000">
            <path d="M15.948958,4.50938163e-15 C6.80876155,11.1439311 5.14570832,18.2582757 5.55662138,22.4531587 C5.92718037,27.786104 10.3583675,32 15.7859896,32 C21.315273,32 25.8112594,27.6250758 26.0301026,22.1477871 C26.739015,12.9144659 15.948958,4.50938163e-15 15.948958,4.50938163e-15 L15.948958,4.50938163e-15 Z M12.63294,26.945653 C12.63294,26.945653 10.2761073,28.0064993 8.78378277,24.8639263 C8.78378277,24.8639263 5.99469583,21.4466351 10.8263195,12.7266642 C10.8263195,12.7266642 8.54786668,19.2477264 13.1831522,24.7459682 C13.1831522,24.7455802 14.0076945,26.2386807 12.63294,26.945653 L12.63294,26.945653 Z" id="Shape"></path>
        </g>
    </g>
</svg>