<svg height="32" viewBox="0 0 32 32" width="32" xmlns="http://www.w3.org/2000/svg"><g fill-rule="evenodd"><g transform="translate(9)"><path d="m4.04327358 3.9731167c-.25518533 0-.46205391-.20860052-.46205391-.46592231v-3.04127207c0-.25732179.20686858-.46592232.46205391-.46592232h5.50006286c.25518533 0 .46205396.20860053.46205396.46592232v3.04127207c0 .25732179-.20686863.46592231-.46205396.46592231zm5.03800894-.93184463v-2.10942744h-4.57595502v2.10942744z" fill-rule="nonzero"/><path d="m.84619599 32.0506998c-.25518533 0-.46205392-.2086005-.46205392-.4659223v-28.04900795c0-.25732179.20686859-.46592231.46205392-.46592231h11.89421801c.2551854 0 .4620539.20860052.4620539.46592231v28.04900795c0 .2573218-.2068685.4659223-.4620539.4659223zm11.43216411-.9318446v-27.11716333h-10.9701102v27.11716333z" fill-rule="nonzero"/><path d="m2.03146595 30.2592108h9.52367815v-5.3884666h-9.52367815z"/></g><path d="m15.8112606 13.1787109c-1.611696 1.9650157-1.9049431 3.2194921-1.8324866 3.9591782.0653409.9403613.8466946 1.6834 1.8037503 1.6834.9749817 0 1.7677615-.7714329 1.8063503-1.7372463.1250029-1.6281168-1.777614-3.9053319-1.777614-3.9053319zm-.5847153 4.7513423s-.4155816.1870596-.6787241-.3670721c0 0-.4918012-.6025728.3601617-2.1401702 0 0-.4017609 1.1498625.4155816 2.1193706 0-.0000684.1453921.2632109-.0970192.3878717z"/></g></svg>