<?xml version="1.0" encoding="UTF-8"?>
<svg width="32px" height="32px" viewBox="0 0 32 32" version="1.1" xmlns="http://www.w3.org/2000/svg" xmlns:xlink="http://www.w3.org/1999/xlink">
    <!-- Generator: Sketch 42 (36781) - http://www.bohemiancoding.com/sketch -->
    <title>water-battery</title>
    <desc>Created with Sketch.</desc>
    <defs></defs>
    <g id="Page-1" stroke="none" stroke-width="1" fill="none" fill-rule="evenodd">
        <g id="water-battery" fill="#000000">
            <g id="Group" transform="translate(9.000000, 0.000000)">
                <path d="M4.04327358,3.9731167 C3.78808825,3.9731167 3.58121967,3.76451618 3.58121967,3.50719439 L3.58121967,0.465922316 C3.58121967,0.208600526 3.78808825,0 4.04327358,0 L9.54333644,0 C9.79852177,0 10.0053904,0.208600526 10.0053904,0.465922316 L10.0053904,3.50719439 C10.0053904,3.76451618 9.79852177,3.9731167 9.54333644,3.9731167 L4.04327358,3.9731167 Z M9.08128252,3.04127207 L9.08128252,0.931844632 L4.5053275,0.931844632 L4.5053275,3.04127207 L9.08128252,3.04127207 Z" id="Stroke-4" fill-rule="nonzero"></path>
                <path d="M0.846195986,32.0506998 C0.591010655,32.0506998 0.38414207,31.8420993 0.38414207,31.5847775 L0.38414207,3.53576955 C0.38414207,3.27844776 0.591010655,3.06984724 0.846195986,3.06984724 L12.740414,3.06984724 C12.9955994,3.06984724 13.2024679,3.27844776 13.2024679,3.53576955 L13.2024679,31.5847775 C13.2024679,31.8420993 12.9955994,32.0506998 12.740414,32.0506998 L0.846195986,32.0506998 Z M12.2783601,31.1188552 L12.2783601,4.00169187 L1.3082499,4.00169187 L1.3082499,31.1188552 L12.2783601,31.1188552 Z" id="Stroke-1" fill-rule="nonzero"></path>
                <polygon id="Stroke-5" points="2.03146595 30.2592108 11.5551441 30.2592108 11.5551441 24.8707442 2.03146595 24.8707442"></polygon>
            </g>
            <path d="M15.8112606,13.1787109 C14.1995646,15.1437266 13.9063175,16.398203 13.978774,17.1378891 C14.0441149,18.0782504 14.8254686,18.8212891 15.7825243,18.8212891 C16.757506,18.8212891 17.5502858,18.0498562 17.5888746,17.0840428 C17.7138775,15.455926 15.8112606,13.1787109 15.8112606,13.1787109 L15.8112606,13.1787109 Z M15.2265453,17.9300532 C15.2265453,17.9300532 14.8109637,18.1171128 14.5478212,17.5629811 C14.5478212,17.5629811 14.05602,16.9604083 14.9079829,15.4228109 C14.9079829,15.4228109 14.506222,16.5726734 15.3235645,17.5421815 C15.3235645,17.5421131 15.4689566,17.8053924 15.2265453,17.9300532 L15.2265453,17.9300532 Z" id="Shape"></path>
        </g>
    </g>
</svg>